<svg width="19" height="17" viewBox="0 0 19 17" fill="none" xmlns="http://www.w3.org/2000/svg">
<path d="M3.24786 15.7441H14.9145M8.71625 0.965704C8.75221 0.900376 8.80506 0.845898 8.86926 0.807957C8.93346 0.770015 9.00667 0.75 9.08125 0.75C9.15582 0.75 9.22903 0.770015 9.29323 0.807957C9.35743 0.845898 9.41028 0.900376 9.44625 0.965704L11.9062 5.6357C11.9649 5.74384 12.0468 5.83764 12.146 5.91039C12.2452 5.98313 12.3593 6.033 12.4801 6.05642C12.6009 6.07984 12.7253 6.07623 12.8445 6.04585C12.9637 6.01547 13.0747 5.95907 13.1696 5.8807L16.7337 2.82737C16.8022 2.77172 16.8865 2.73922 16.9745 2.73454C17.0626 2.72986 17.1499 2.75324 17.2238 2.80133C17.2978 2.84941 17.3545 2.91971 17.386 3.00211C17.4174 3.08451 17.4219 3.17476 17.3987 3.25987L15.0371 11.7982C14.9889 11.9729 14.885 12.1272 14.7413 12.2375C14.5975 12.3479 14.4217 12.4084 14.2404 12.4099H3.92291C3.74152 12.4086 3.5655 12.3482 3.42157 12.2378C3.27764 12.1274 3.17366 11.9731 3.12541 11.7982L0.764579 3.2607C0.741454 3.1756 0.74593 3.08535 0.777363 3.00295C0.808796 2.92054 0.865564 2.85024 0.939496 2.80216C1.01343 2.75408 1.10071 2.73069 1.18878 2.73537C1.27685 2.74005 1.36116 2.77255 1.42958 2.8282L4.99291 5.88154C5.08774 5.9599 5.19875 6.0163 5.31797 6.04668C5.43718 6.07707 5.56164 6.08067 5.68241 6.05725C5.80319 6.03383 5.91727 5.98396 6.01649 5.91122C6.1157 5.83848 6.19758 5.74467 6.25625 5.63654L8.71625 0.965704Z" stroke="url(#paint0_linear_3857_441026)" stroke-width="1.5" stroke-linecap="round" stroke-linejoin="round"/>
<defs>
<linearGradient id="paint0_linear_3857_441026" x1="9.08166" y1="0.75" x2="9.08166" y2="15.7441" gradientUnits="userSpaceOnUse">
<stop stop-color="#FDC700"/>
<stop offset="1" stop-color="#FF8904"/>
</linearGradient>
</defs>
</svg>
