<svg width="140" height="140" viewBox="0 0 140 140" fill="none" xmlns="http://www.w3.org/2000/svg">
<ellipse opacity="0.1" cx="70" cy="135.798" rx="70" ry="4.2" fill="#99A1AF"/>
<path fill-rule="evenodd" clip-rule="evenodd" d="M64.0486 30.2466C64.0486 27.459 66.3084 25.1992 69.096 25.1992C71.8836 25.1992 74.1434 27.459 74.1434 30.2466C74.1434 31.6691 73.5549 32.9542 72.6081 33.8716C86.6975 35.1901 96.8975 44.4851 98.1466 58.5374C100.996 56.9217 104.29 55.9992 107.8 55.9992C118.625 55.9992 127.4 64.7744 127.4 75.5992C127.4 85.3057 120.344 93.3642 111.082 94.9257C111.662 95.808 112 96.8642 112 97.9992C112 101.092 109.493 103.599 106.4 103.599H82.549C81.9721 110.023 76.574 115.058 70 115.058C63.426 115.058 58.0279 110.023 57.451 103.599H33.6C30.5072 103.599 28 101.092 28 97.9992C28 94.9064 30.5072 92.3992 33.6 92.3992H38.5178V64.2889C38.5178 48.5765 50.3684 35.6319 65.6192 33.9055C64.6518 32.986 64.0486 31.6867 64.0486 30.2466ZM95.4445 60.089C95.4486 60.1796 95.4608 60.2683 95.4803 60.3542C91.0394 63.9474 88.2 69.4417 88.2 75.5992C88.2 82.7289 92.0068 88.9695 97.6988 92.3992H41.3178V64.2889C41.3178 48.947 53.7548 36.51 69.0967 36.51C83.9665 36.51 94.7924 45.5631 95.4445 60.089ZM60.2992 103.858C60.9786 108.607 65.0629 112.258 70 112.258C74.9371 112.258 79.0214 108.607 79.7008 103.858H60.2992ZM30.8 32.0392C30.8 31.3544 31.3552 30.7992 32.04 30.7992C32.7248 30.7992 33.28 31.3544 33.28 32.0392C33.28 32.7241 32.7248 33.2792 32.04 33.2792C31.3552 33.2792 30.8 32.7241 30.8 32.0392ZM32.04 27.9992C29.8088 27.9992 28 29.808 28 32.0392C28 34.2704 29.8088 36.0792 32.04 36.0792C34.2712 36.0792 36.08 34.2704 36.08 32.0392C36.08 29.808 34.2712 27.9992 32.04 27.9992ZM107.8 58.7992C98.5216 58.7992 91 66.3208 91 75.5992C91 84.8776 98.5216 92.3992 107.8 92.3992C117.078 92.3992 124.6 84.8776 124.6 75.5992C124.6 66.3208 117.078 58.7992 107.8 58.7992ZM107.8 62.9992C105.867 62.9992 104.3 64.5662 104.3 66.4992V74.8992C104.3 76.8322 105.867 78.3992 107.8 78.3992C109.733 78.3992 111.3 76.8322 111.3 74.8992V66.4992C111.3 64.5662 109.733 62.9992 107.8 62.9992ZM107.1 66.4992C107.1 66.1126 107.413 65.7992 107.8 65.7992C108.187 65.7992 108.5 66.1126 108.5 66.4992V74.8992C108.5 75.2858 108.187 75.5992 107.8 75.5992C107.413 75.5992 107.1 75.2858 107.1 74.8992V66.4992ZM104.3 84.6992C104.3 86.6322 105.867 88.1992 107.8 88.1992C109.733 88.1992 111.3 86.6322 111.3 84.6992C111.3 82.7662 109.733 81.1992 107.8 81.1992C105.867 81.1992 104.3 82.7662 104.3 84.6992ZM107.8 85.3992C107.413 85.3992 107.1 85.0858 107.1 84.6992C107.1 84.3126 107.413 83.9992 107.8 83.9992C108.187 83.9992 108.5 84.3126 108.5 84.6992C108.5 85.0858 108.187 85.3992 107.8 85.3992ZM47.4945 32.9235C47.7912 32.7865 48.1425 32.9215 48.271 33.222L48.3145 33.3235C48.4588 33.6607 48.3077 34.0628 47.9647 34.2211C42.5369 36.7261 39.3431 40.5597 37.5041 43.7566C36.5833 45.3573 36.0014 46.8 35.6508 47.8377C35.4756 48.3563 35.3584 48.773 35.2856 49.0566C35.2493 49.1984 35.224 49.3069 35.2082 49.3781C35.2003 49.4137 35.1948 49.4399 35.1914 49.4564L35.1902 49.4624L35.1887 49.4698L35.2418 49.2331L35.186 49.4837L35.1795 49.5179C35.1141 49.8611 34.7806 50.0844 34.4384 50.0141C34.1031 49.9452 33.8853 49.6198 33.9494 49.2836L33.9684 49.1839L33.9687 49.182L33.9694 49.1785L33.9705 49.1727L33.9766 49.1427L33.9771 49.1404C33.982 49.1166 33.989 49.0833 33.9984 49.0412C34.0176 48.9543 34.0467 48.8295 34.0874 48.6708C34.1688 48.3535 34.2966 47.9002 34.485 47.3428C34.8615 46.2284 35.481 44.6946 36.4571 42.9978C38.4121 39.5994 41.7942 35.5542 47.4945 32.9235ZM31.2186 48.6642L31.1988 48.7597C30.8483 50.5996 32.0404 52.38 33.8751 52.7568C35.7474 53.1414 37.5724 51.9195 37.93 50.0418L37.9345 50.0182L37.9418 49.9845C37.9513 49.9418 37.9694 49.8631 37.9979 49.7522C38.0548 49.5301 38.1525 49.1807 38.3035 48.734C38.6064 47.8375 39.1173 46.5675 39.9312 45.1527C41.5514 42.3362 44.3518 38.9723 49.138 36.7634C50.8475 35.9745 51.6338 33.9627 50.8886 32.2218L50.8452 32.1202C50.096 30.3699 48.0499 29.5834 46.3212 30.3812C39.9788 33.3083 36.2034 37.8235 34.03 41.6016C32.947 43.4843 32.2566 45.1908 31.8323 46.4465C31.6197 47.0758 31.4724 47.5964 31.3752 47.9752C31.3266 48.1648 31.2904 48.3194 31.2648 48.4348C31.252 48.4925 31.2418 48.5405 31.2341 48.5783L31.2331 48.5831L31.1836 48.8453L31.2083 48.7142L31.2743 48.3924L31.2331 48.5831L31.2186 48.6642Z" fill="#99A1AF"/>
</svg>
