<svg width="140" height="140" viewBox="0 0 140 140" fill="none" xmlns="http://www.w3.org/2000/svg">
<ellipse opacity="0.1" cx="70" cy="135.798" rx="70" ry="4.2" fill="#99A1AF"/>
<path fill-rule="evenodd" clip-rule="evenodd" d="M54.1898 30.8023C55.1039 27.5704 58.0754 25.2023 61.6 25.2023H89.9988C87.6313 26.6288 85.59 28.5416 84.0131 30.8023H54.1898ZM82.3862 33.6023H41.3C36.6608 33.6023 32.9 37.3632 32.9 42.0023V93.8023H76.3H77C77.7732 93.8023 78.4 94.4291 78.4 95.2023V102.552C78.4 108.545 83.2577 113.402 89.25 113.402C95.2423 113.402 100.1 108.545 100.1 102.552V61.6023C89.2752 61.6023 80.5 52.8271 80.5 42.0023C80.5 38.9963 81.1767 36.1483 82.3862 33.6023ZM102.9 61.4039V100.686C106.873 100.02 109.9 96.5645 109.9 92.4023V58.9802C107.785 60.2038 105.42 61.0434 102.9 61.4039ZM112.7 57.0163V92.4023C112.7 98.1254 108.407 102.846 102.866 103.52C102.37 110.607 96.4634 116.202 89.25 116.202C89.1278 116.202 89.0061 116.201 88.8847 116.198L88.9 116.202H38.5C30.768 116.202 24.5 109.934 24.5 102.202V99.4023C24.5 96.3095 27.0072 93.8023 30.1 93.8023V42.0023C30.1 35.8168 35.1144 30.8023 41.3 30.8023H51.31C52.2829 26.0096 56.5202 22.4023 61.6 22.4023H98.7V22.4516C99.1624 22.4189 99.6293 22.4023 100.1 22.4023C110.925 22.4023 119.7 31.1776 119.7 42.0023C119.7 48.0293 116.98 53.4209 112.7 57.0163ZM16.8 107.452C16.8 106.872 17.2701 106.402 17.85 106.402C18.4299 106.402 18.9 106.872 18.9 107.452V107.802C18.9 115.534 25.168 121.802 32.9 121.802H36.12C36.6612 121.802 37.1 122.241 37.1 122.782C37.1 123.324 36.6612 123.762 36.12 123.762H32.9C23.6067 123.762 16.8 117.066 16.8 107.802V107.452ZM17.85 103.602C15.7237 103.602 14 105.326 14 107.452V107.802C14 118.642 22.0902 126.562 32.9 126.562H36.12C38.2076 126.562 39.9 124.87 39.9 122.782C39.9 120.695 38.2076 119.002 36.12 119.002H32.9C26.7144 119.002 21.7 113.988 21.7 107.802V107.452C21.7 105.326 19.9763 103.602 17.85 103.602ZM39.9 70.7023C39.9 68.7693 41.467 67.2023 43.4 67.2023H64.4C66.333 67.2023 67.9 68.7693 67.9 70.7023C67.9 72.6353 66.333 74.2023 64.4 74.2023H43.4C41.467 74.2023 39.9 72.6353 39.9 70.7023ZM43.4 70.0023C43.0134 70.0023 42.7 70.3157 42.7 70.7023C42.7 71.0889 43.0134 71.4023 43.4 71.4023H64.4C64.7866 71.4023 65.1 71.0889 65.1 70.7023C65.1 70.3157 64.7866 70.0023 64.4 70.0023H43.4ZM51.7357 61.8225C51.8424 61.9291 52.0105 61.9824 52.2402 61.9824C52.4371 61.9824 52.5807 61.9291 52.6709 61.8225C52.7693 61.7158 52.8186 61.5477 52.8186 61.318V60.3213C53.5814 60.2393 54.2746 60.0219 54.898 59.6691C55.5215 59.3082 56.0219 58.7832 56.3992 58.0941C56.7848 57.3969 56.9775 56.5355 56.9775 55.5102C56.9775 54.6242 56.7766 53.8941 56.3746 53.3199C55.9727 52.7375 55.5051 52.2904 54.9719 51.9787C54.4387 51.667 53.7209 51.3143 52.8186 50.9205V47.5982C53.2287 47.6146 53.5732 47.6598 53.8521 47.7336C54.1393 47.8074 54.4305 47.9018 54.7258 48.0166C54.9309 48.0986 55.0662 48.1396 55.1318 48.1396C55.2959 48.1396 55.4682 48.0248 55.6486 47.7951C55.8373 47.5654 55.9973 47.2988 56.1285 46.9953C56.2598 46.6836 56.3254 46.4293 56.3254 46.2324C56.3254 46.0109 56.1736 45.7895 55.8701 45.568C55.5748 45.3465 55.1564 45.1578 54.615 45.002C54.0818 44.8461 53.483 44.7559 52.8186 44.7312V44.0545C52.8186 43.8166 52.7693 43.6484 52.6709 43.55C52.5725 43.4516 52.4043 43.4023 52.1664 43.4023C51.9695 43.4023 51.8219 43.4557 51.7234 43.5623C51.625 43.6607 51.5758 43.8248 51.5758 44.0545V44.7436C50.7801 44.8338 50.05 45.0512 49.3855 45.3957C48.7293 45.7402 48.2002 46.2324 47.7982 46.8723C47.4045 47.5039 47.2076 48.2791 47.2076 49.1979C47.2076 50.1658 47.4168 50.9533 47.8352 51.5604C48.2617 52.1592 48.758 52.6145 49.324 52.9262C49.8982 53.2297 50.6488 53.5537 51.5758 53.8982V57.5035C51.0672 57.5035 50.5996 57.4338 50.173 57.2943C49.7547 57.1549 49.324 56.9744 48.8811 56.7529C48.5693 56.5889 48.3643 56.5068 48.2658 56.5068C48.1182 56.5068 47.9336 56.6217 47.7121 56.8514C47.4906 57.0728 47.2979 57.3395 47.1338 57.6512C46.9779 57.9629 46.9 58.2254 46.9 58.4387C46.9 58.693 47.0846 58.9637 47.4537 59.2508C47.8311 59.5379 48.3725 59.7881 49.0779 60.0014C49.7916 60.2064 50.6242 60.3254 51.5758 60.3582V61.318C51.5758 61.5477 51.6291 61.7158 51.7357 61.8225ZM50.6898 48.2135C50.8539 47.992 51.1492 47.8279 51.5758 47.7213V50.3545C51.2066 50.1412 50.9236 49.9197 50.7268 49.69C50.5381 49.4604 50.4437 49.1896 50.4437 48.8779C50.4437 48.6482 50.5258 48.4268 50.6898 48.2135ZM53.5076 56.7529C53.3354 56.9744 53.1057 57.1426 52.8186 57.2574V54.4889C53.4502 54.8498 53.766 55.3256 53.766 55.9162C53.766 56.2525 53.6799 56.5314 53.5076 56.7529ZM39.9 81.9023C39.9 79.9693 41.467 78.4023 43.4 78.4023H85.4C87.333 78.4023 88.9 79.9693 88.9 81.9023C88.9 83.8353 87.333 85.4023 85.4 85.4023H43.4C41.467 85.4023 39.9 83.8353 39.9 81.9023ZM43.4 81.2023C43.0134 81.2023 42.7 81.5157 42.7 81.9023C42.7 82.2889 43.0134 82.6023 43.4 82.6023H85.4C85.7866 82.6023 86.1 82.2889 86.1 81.9023C86.1 81.5157 85.7866 81.2023 85.4 81.2023H43.4ZM83.3 42.0023C83.3 32.724 90.8216 25.2023 100.1 25.2023C109.378 25.2023 116.9 32.724 116.9 42.0023C116.9 51.2807 109.378 58.8023 100.1 58.8023C90.8216 58.8023 83.3 51.2807 83.3 42.0023ZM96.6 32.9023C96.6 30.9693 98.167 29.4023 100.1 29.4023C102.033 29.4023 103.6 30.9693 103.6 32.9023V41.3023C103.6 43.2353 102.033 44.8023 100.1 44.8023C98.167 44.8023 96.6 43.2353 96.6 41.3023V32.9023ZM100.1 32.2023C99.7134 32.2023 99.4 32.5157 99.4 32.9023V41.3023C99.4 41.6889 99.7134 42.0023 100.1 42.0023C100.487 42.0023 100.8 41.6889 100.8 41.3023V32.9023C100.8 32.5157 100.487 32.2023 100.1 32.2023ZM100.1 54.6023C98.167 54.6023 96.6 53.0353 96.6 51.1023C96.6 49.1693 98.167 47.6023 100.1 47.6023C102.033 47.6023 103.6 49.1693 103.6 51.1023C103.6 53.0353 102.033 54.6023 100.1 54.6023ZM99.4 51.1023C99.4 51.4889 99.7134 51.8023 100.1 51.8023C100.487 51.8023 100.8 51.4889 100.8 51.1023C100.8 50.7157 100.487 50.4023 100.1 50.4023C99.7134 50.4023 99.4 50.7157 99.4 51.1023Z" fill="#99A1AF"/>
</svg>
