<svg width="105" height="96" viewBox="0 0 105 96" fill="none" xmlns="http://www.w3.org/2000/svg">
<path fill-rule="evenodd" clip-rule="evenodd" d="M74.084 3.44164C74.2204 1.40915 75.9786 -0.127957 78.0111 0.00841636C80.0436 0.14479 81.5807 1.903 81.4443 3.93549L80.9364 11.5062C80.8 13.5387 79.0418 15.0758 77.0093 14.9394C74.9768 14.8031 73.4397 13.0449 73.5761 11.0124L74.084 3.44164ZM77.8237 2.80214C77.3341 2.76929 76.9106 3.13953 76.8778 3.62909L76.3698 11.1998C76.3369 11.6894 76.7072 12.1129 77.1967 12.1457C77.6863 12.1786 78.1098 11.8083 78.1426 11.3188L78.6506 3.74804C78.6835 3.25848 78.3132 2.83498 77.8237 2.80214ZM81.0758 19.1493C81.2122 17.1168 82.9704 15.5797 85.0029 15.716L92.5736 16.224C94.6061 16.3604 96.1432 18.1186 96.0068 20.1511C95.8705 22.1836 94.1123 23.7207 92.0798 23.5843L84.509 23.0763C82.4766 22.94 80.9395 21.1818 81.0758 19.1493ZM84.8155 18.5098C84.3259 18.4769 83.9024 18.8471 83.8696 19.3367C83.8367 19.8263 84.2069 20.2498 84.6965 20.2826L92.2672 20.7906C92.7568 20.8234 93.1803 20.4532 93.2131 19.9636C93.246 19.4741 92.8757 19.0506 92.3862 19.0177L84.8155 18.5098ZM86.083 42.5368L75.263 21.5337L75.1869 21.5729C74.1713 19.0907 72.1486 17.0432 69.4544 16.0667L54.9687 10.8165C52.3729 9.87562 49.5005 10.0735 47.0582 11.3614L5.23083 33.4179C0.443299 35.9424 -1.3912 41.8701 1.13337 46.6576L11.769 66.8269C14.2768 71.5826 20.1427 73.4244 24.9133 70.974C22.994 75.6211 24.9164 81.0451 29.463 83.4039L49.8637 93.9875C54.5942 96.4416 60.4188 94.6657 62.9753 89.9897L70.6595 75.9354C74.2063 79.4818 79.1059 81.6752 84.5179 81.6752C95.3427 81.6752 104.118 72.9 104.118 62.0752C104.118 51.7772 96.176 43.3342 86.083 42.5368ZM82.934 42.5382L75.5043 28.116L71.7541 42.648C71.0642 45.3215 69.2785 47.5799 66.8362 48.8678L28.8323 68.9081L29.0411 69.0164L27.7624 71.4813C25.9821 74.913 27.3207 79.1381 30.7524 80.9184L51.1531 91.502C54.532 93.255 58.6924 91.9865 60.5186 88.6465L68.7098 73.6646C66.326 70.4186 64.9179 66.4113 64.9179 62.0752C64.9179 51.7836 72.8499 43.3446 82.934 42.5382ZM68.5003 18.6991C71.8927 19.9287 73.7946 23.5354 72.893 27.0293L69.043 41.9483C68.5502 43.858 67.2746 45.4711 65.5301 46.3911L23.7027 68.4476C20.2831 70.2508 16.049 68.9405 14.2458 65.5208L3.61011 45.3516C1.80685 41.9319 3.1172 37.6979 6.53687 35.8946L48.3643 13.8381C50.1088 12.9182 52.1604 12.7769 54.0146 13.4489L68.5003 18.6991ZM23.8183 64.1063L28.166 61.8137C30.2178 60.7317 31.004 58.1913 29.9221 56.1395L20.4336 38.1458C19.3517 36.094 16.8112 35.3077 14.7594 36.3897L10.4117 38.6824C8.35988 39.7643 7.57367 42.3047 8.65562 44.3565L18.1441 62.3503C19.2261 64.4021 21.7665 65.1883 23.8183 64.1063ZM26.5856 31.4476C26.2189 30.7669 25.3698 30.5124 24.6891 30.8792C24.0084 31.2459 23.7539 32.095 24.1206 32.7757L35.6019 54.0851C35.9687 54.7658 36.8178 55.0203 37.4984 54.6535C38.1791 54.2868 38.4336 53.4377 38.0669 52.757L26.5856 31.4476ZM57.2227 38.1091C53.7052 39.9639 49.35 38.6161 47.4952 35.0986C45.6403 31.5811 46.9882 27.2259 50.5057 25.371C54.0232 23.5161 58.3784 24.864 60.2332 28.3815C62.0881 31.899 60.7403 36.2542 57.2227 38.1091ZM67.7179 62.0752C67.7179 52.7968 75.2395 45.2752 84.5179 45.2752C93.7963 45.2752 101.318 52.7968 101.318 62.0752C101.318 71.3536 93.7963 78.8752 84.5179 78.8752C75.2395 78.8752 67.7179 71.3536 67.7179 62.0752ZM81.0179 52.9752C81.0179 51.0422 82.5849 49.4752 84.5179 49.4752C86.4509 49.4752 88.0179 51.0422 88.0179 52.9752V61.3752C88.0179 63.3082 86.4509 64.8752 84.5179 64.8752C82.5849 64.8752 81.0179 63.3082 81.0179 61.3752V52.9752ZM84.5179 52.2752C84.1313 52.2752 83.8179 52.5886 83.8179 52.9752V61.3752C83.8179 61.7618 84.1313 62.0752 84.5179 62.0752C84.9045 62.0752 85.2179 61.7618 85.2179 61.3752V52.9752C85.2179 52.5886 84.9045 52.2752 84.5179 52.2752ZM84.5179 74.6752C82.5849 74.6752 81.0179 73.1082 81.0179 71.1752C81.0179 69.2422 82.5849 67.6752 84.5179 67.6752C86.4509 67.6752 88.0179 69.2422 88.0179 71.1752C88.0179 73.1082 86.4509 74.6752 84.5179 74.6752ZM83.8179 71.1752C83.8179 71.5618 84.1313 71.8752 84.5179 71.8752C84.9045 71.8752 85.2179 71.5618 85.2179 71.1752C85.2179 70.7886 84.9045 70.4752 84.5179 70.4752C84.1313 70.4752 83.8179 70.7886 83.8179 71.1752Z" fill="#99A1AF"/>
</svg>
