<svg width="111" height="107" viewBox="0 0 111 107" fill="none" xmlns="http://www.w3.org/2000/svg">
<path fill-rule="evenodd" clip-rule="evenodd" d="M10.317 5.67959C9.21758 3.9647 9.71651 1.68323 11.4314 0.583792C13.1463 -0.515645 15.4278 -0.0167217 16.5272 1.69817L20.6224 8.0859C21.7219 9.8008 21.2229 12.0823 19.5081 13.1817C17.7932 14.2811 15.5117 13.7822 14.4123 12.0673L10.317 5.67959ZM12.9426 2.94097C12.5295 3.20579 12.4094 3.75532 12.6742 4.16838L16.7694 10.5561C17.0342 10.9692 17.5838 11.0893 17.9968 10.8245C18.4099 10.5597 18.5301 10.0102 18.2653 9.59711L14.17 3.20938C13.9052 2.79632 13.3557 2.67615 12.9426 2.94097ZM17.1835 44.203C17.1835 26.113 32.6143 10.9261 51.1025 10.9261C69.1082 10.9261 84.2139 25.3305 84.9902 42.7925C77.3046 45.4433 71.7835 52.74 71.7835 61.3262C71.7835 64.3901 72.4865 67.2897 73.7401 69.8727C66.6889 78.9747 58.1232 86.6625 53.5182 90.5308C52.1061 91.7171 50.0985 91.7167 48.6854 90.5296C44.3229 86.8649 36.4 79.7675 29.5797 71.2847C22.7122 62.7433 17.1835 53.0648 17.1835 44.203ZM75.2596 72.4729C71.7202 76.9381 67.8694 81.0355 64.3381 84.4916C69.9974 85.1964 74.9261 86.3588 78.5951 87.8548C80.6599 88.6966 82.4012 89.6742 83.6496 90.7943C84.8956 91.9122 85.7835 93.3001 85.7835 94.9264C85.7835 96.9628 84.4047 98.6176 82.6042 99.8856C80.7656 101.18 78.1961 102.29 75.147 103.198C69.0308 105.02 60.6649 106.126 51.4835 106.126C42.3022 106.126 33.9363 105.02 27.8201 103.198C24.771 102.29 22.2015 101.18 20.3629 99.8856C18.5623 98.6176 17.1835 96.9628 17.1835 94.9264C17.1835 93.3001 18.0715 91.9122 19.3174 90.7943C20.5659 89.6742 22.3071 88.6966 24.3719 87.8548C27.8947 86.4185 32.5786 85.2896 37.9554 84.5781C34.5493 81.2498 30.8404 77.3212 27.3975 73.0392C20.4614 64.4124 14.3835 54.083 14.3835 44.203C14.3835 24.5183 31.1166 8.12609 51.1025 8.12609C70.359 8.12609 86.5957 23.3435 87.7553 42.0613C88.9311 41.8412 90.1439 41.7262 91.3835 41.7262C102.208 41.7262 110.984 50.5014 110.984 61.3262C110.984 72.151 102.208 80.9262 91.3835 80.9262C84.6998 80.9262 78.7974 77.5807 75.2596 72.4729ZM61.8604 86.8646C59.3131 89.2525 57.0396 91.2296 55.3192 92.6748C52.8648 94.7366 49.3378 94.7346 46.8844 92.6735C45.2168 91.2727 43.0309 89.3732 40.5804 87.0851C34.3826 87.7433 29.1261 88.9402 25.4291 90.4476C23.5215 91.2253 22.1043 92.0557 21.1874 92.8784C20.2679 93.7033 19.9835 94.3932 19.9835 94.9264C19.9835 95.5961 20.446 96.5195 21.9751 97.5963C23.4662 98.6464 25.7148 99.6491 28.6194 100.514C34.4106 102.239 42.4947 103.326 51.4835 103.326C60.4724 103.326 68.5564 102.239 74.3477 100.514C77.2523 99.6491 79.5009 98.6464 80.992 97.5963C82.5211 96.5195 82.9835 95.5961 82.9835 94.9264C82.9835 94.3932 82.6992 93.7033 81.7797 92.8784C80.8628 92.0557 79.4455 91.2253 77.538 90.4476C73.7335 88.8964 68.2776 87.674 61.8439 87.0291L61.8604 86.8646ZM51.1009 55.7659C57.603 55.7659 62.8739 50.5908 62.8739 44.207C62.8739 37.8231 57.603 32.648 51.1009 32.648C44.5988 32.648 39.3279 37.8231 39.3279 44.207C39.3279 50.5908 44.5988 55.7659 51.1009 55.7659ZM0.253774 14.3293C-0.487369 16.2267 0.450001 18.3657 2.34745 19.1069L9.41518 21.8675C11.3126 22.6087 13.4516 21.6713 14.1928 19.7738C14.9339 17.8764 13.9965 15.7374 12.0991 14.9962L5.03137 12.2356C3.13392 11.4944 0.994917 12.4318 0.253774 14.3293ZM3.36618 16.4988C2.90914 16.3202 2.68336 15.805 2.86188 15.348C3.04039 14.891 3.55561 14.6652 4.01265 14.8437L11.0804 17.6043C11.5374 17.7829 11.7632 18.2981 11.5847 18.7551C11.4062 19.2122 10.8909 19.4379 10.4339 19.2594L3.36618 16.4988ZM74.5835 61.3262C74.5835 52.0478 82.1051 44.5262 91.3835 44.5262C100.662 44.5262 108.184 52.0478 108.184 61.3262C108.184 70.6046 100.662 78.1262 91.3835 78.1262C82.1051 78.1262 74.5835 70.6046 74.5835 61.3262ZM87.8835 52.2262C87.8835 50.2932 89.4505 48.7262 91.3835 48.7262C93.3165 48.7262 94.8835 50.2932 94.8835 52.2262V60.6262C94.8835 62.5592 93.3165 64.1262 91.3835 64.1262C89.4505 64.1262 87.8835 62.5592 87.8835 60.6262V52.2262ZM91.3835 51.5262C90.9969 51.5262 90.6835 51.8396 90.6835 52.2262V60.6262C90.6835 61.0128 90.9969 61.3262 91.3835 61.3262C91.7701 61.3262 92.0835 61.0128 92.0835 60.6262V52.2262C92.0835 51.8396 91.7701 51.5262 91.3835 51.5262ZM91.3835 73.9262C89.4505 73.9262 87.8835 72.3592 87.8835 70.4262C87.8835 68.4932 89.4505 66.9262 91.3835 66.9262C93.3165 66.9262 94.8835 68.4932 94.8835 70.4262C94.8835 72.3592 93.3165 73.9262 91.3835 73.9262ZM90.6835 70.4262C90.6835 70.8128 90.9969 71.1262 91.3835 71.1262C91.7701 71.1262 92.0835 70.8128 92.0835 70.4262C92.0835 70.0396 91.7701 69.7262 91.3835 69.7262C90.9969 69.7262 90.6835 70.0396 90.6835 70.4262Z" fill="#99A1AF"/>
</svg>
