<svg xmlns="http://www.w3.org/2000/svg" width="21" height="24" viewBox="0 0 21 24" fill="none">
  <g clip-path="url(#clip0_3222_197564)">
    <path d="M0.935404 11.7539C0.942154 11.7685 0.94895 11.783 0.955793 11.7975C1.22289 12.3659 2.07732 12.1402 2.02468 11.5145C1.9285 10.3708 2.06997 9.18857 2.48204 8.03741C3.81967 4.30082 8.31072 0.0462089 12.2876 3.70753e-05C12.7123 -0.0048848 12.9562 0.481303 12.7055 0.824146C12.3714 1.28118 12.1 1.79638 11.9079 2.36151C11.2772 4.21658 11.6654 6.19161 12.7759 7.65899C13.2388 8.27071 14.2218 7.9686 14.238 7.20163C14.2381 7.1961 14.2382 7.19052 14.2383 7.18494C14.2448 6.77835 14.1781 6.38797 14.0501 6.02643C13.9937 5.867 14.1415 5.71011 14.3034 5.75891C16.558 6.43846 18.2723 9.75608 18.2723 12.1225C18.2723 12.2953 18.2627 12.4659 18.2448 12.634C18.2426 12.9483 18.1895 13.268 18.0785 13.5823C18.0745 13.5936 18.0705 13.6049 18.0664 13.6162C18.0318 13.7128 17.9951 13.8081 17.9573 13.9026C18.4913 13.2498 18.9455 12.5293 19.3047 11.7556C19.4717 11.3962 20 11.4675 20.0649 11.8585C20.1805 12.5548 20.241 13.2339 20.241 13.8795C20.241 19.4689 15.7099 24 10.1205 24C4.53114 24 5.72205e-05 19.4689 5.72205e-05 13.8795C5.72205e-05 13.2339 0.0605755 12.5547 0.176216 11.8583C0.240952 11.4683 0.76895 11.3952 0.935404 11.7539Z" fill="url(#paint0_linear_3222_197564)"/>
    <path d="M13.8531 12.6152H10.6869L11.1849 8.38176C11.1865 8.37153 11.187 8.32914 11.187 8.31833C11.187 8.01709 10.953 7.78125 10.6538 7.78125C10.487 7.78125 10.327 7.86131 10.2188 8.00843L5.9616 14.4415C5.89286 14.5338 5.85498 14.6482 5.85498 14.7636C5.85498 15.065 6.0891 15.3008 6.38815 15.3008H9.02434L8.5226 20.0794C8.52153 20.0891 8.52104 20.1251 8.52104 20.1348C8.52104 20.436 8.75506 20.6719 9.05421 20.6719C9.22107 20.6719 9.38109 20.5918 9.48663 20.4484L14.2796 13.4746C14.3484 13.3822 14.3862 13.2679 14.3862 13.1523C14.3862 12.8511 14.1522 12.6152 13.8531 12.6152Z" fill="#FB2121"/>
  </g>
  <defs>
    <linearGradient id="paint0_linear_3222_197564" x1="11.6689" y1="-2.25743e-07" x2="11.2818" y2="24" gradientUnits="userSpaceOnUse">
      <stop stop-color="#FFF5D3"/>
      <stop offset="1" stop-color="#FFE207"/>
    </linearGradient>
    <clipPath id="clip0_3222_197564">
      <rect width="21" height="24" fill="white" transform="matrix(-1 0 0 1 21 0)"/>
    </clipPath>
  </defs>
</svg>
