<svg width="50" height="50" viewBox="0 0 50 50" fill="none" xmlns="http://www.w3.org/2000/svg">
<path d="M0 25C0 11.1929 11.1929 0 25 0V0C38.8071 0 50 11.1929 50 25V25C50 38.8071 38.8071 50 25 50V50C11.1929 50 0 38.8071 0 25V25Z" fill="#FFE2E2"/>
<path d="M22 22H22.01M28 22L22 28M28 28H28.01M15 22C15.7956 22 16.5587 22.3161 17.1213 22.8787C17.6839 23.4413 18 24.2044 18 25C18 25.7956 17.6839 26.5587 17.1213 27.1213C16.5587 27.6839 15.7956 28 15 28V30C15 30.5304 15.2107 31.0391 15.5858 31.4142C15.9609 31.7893 16.4696 32 17 32H33C33.5304 32 34.0391 31.7893 34.4142 31.4142C34.7893 31.0391 35 30.5304 35 30V28C34.2044 28 33.4413 27.6839 32.8787 27.1213C32.3161 26.5587 32 25.7956 32 25C32 24.2044 32.3161 23.4413 32.8787 22.8787C33.4413 22.3161 34.2044 22 35 22V20C35 19.4696 34.7893 18.9609 34.4142 18.5858C34.0391 18.2107 33.5304 18 33 18H17C16.4696 18 15.9609 18.2107 15.5858 18.5858C15.2107 18.9609 15 19.4696 15 20V22Z" stroke="#FB2C36" stroke-width="1.5" stroke-linecap="round" stroke-linejoin="round"/>
</svg>
