<svg width="32" height="32" viewBox="0 0 32 32" fill="none" xmlns="http://www.w3.org/2000/svg">
<path d="M16 23.1318C17.2003 23.1318 18.1733 22.1588 18.1733 20.9585C18.1733 19.7582 17.2003 18.7852 16 18.7852C14.7997 18.7852 13.8267 19.7582 13.8267 20.9585C13.8267 22.1588 14.7997 23.1318 16 23.1318Z" fill="white"/>
<path d="M24.3733 12.708V11.0413C24.3733 7.4413 23.5066 2.66797 16 2.66797C8.49329 2.66797 7.62663 7.4413 7.62663 11.0413V12.708C3.89329 13.1746 2.66663 15.068 2.66663 19.7213V22.2013C2.66663 27.668 4.33329 29.3346 9.79996 29.3346H22.2C27.6666 29.3346 29.3333 27.668 29.3333 22.2013V19.7213C29.3333 15.068 28.1066 13.1746 24.3733 12.708ZM16 24.988C13.7733 24.988 11.9733 23.1746 11.9733 20.9613C11.9733 18.7346 13.7866 16.9346 16 16.9346C18.2133 16.9346 20.0266 18.748 20.0266 20.9613C20.0266 23.188 18.2266 24.988 16 24.988ZM9.79996 12.588C9.69329 12.588 9.59996 12.588 9.49329 12.588V11.0413C9.49329 7.13463 10.6 4.53464 16 4.53464C21.4 4.53464 22.5066 7.13463 22.5066 11.0413V12.6013C22.4 12.6013 22.3066 12.6013 22.2 12.6013H9.79996V12.588Z" fill="white"/>
</svg>
