<?xml version="1.0" encoding="utf-8"?>
<!-- Generator: Adobe Illustrator 27.3.1, SVG Export Plug-In . SVG Version: 6.00 Build 0)  -->
<svg version="1.1" id="Layer_1" xmlns="http://www.w3.org/2000/svg" xmlns:xlink="http://www.w3.org/1999/xlink" x="0px" y="0px"
	 viewBox="0 0 46 46" enable-background="new 0 0 46 46" xml:space="preserve">
<g>
	<circle fill="#BE1E2D" cx="23" cy="23" r="23"/>
	<g>
		<defs>
			<circle id="SVGID_1_" cx="23" cy="23" r="22.3"/>
		</defs>
		<clipPath id="SVGID_00000054239544163673818750000010349892936397914010_">
			<use xlink:href="#SVGID_1_"  overflow="visible"/>
		</clipPath>
		<circle clip-path="url(#SVGID_00000054239544163673818750000010349892936397914010_)" fill="#FFFFFF" cx="23" cy="23" r="22.3"/>
		<path clip-path="url(#SVGID_00000054239544163673818750000010349892936397914010_)" fill="#3D0204" d="M33.4,50.6
			c-0.1,0-0.3,0-0.4,0c-0.5-0.1-1-0.4-1.3-0.9c-0.1-0.2-0.2-0.4-0.1-0.6c-0.4-0.5-0.6-1.3-0.7-2.3c0-0.1,0-0.2,0-0.3
			c0-0.3,0.1-0.5,0.3-0.6l0.7-0.4c0,0,0,0,0,0c0.7-0.3,1.5-0.7,2.3-0.9l0.4-0.1c0,0,0.1,0,0.1,0c0.3,0,0.5,0.1,0.6,0.4
			c0.5,1.1,0.6,2.3,0.4,3.3c0,0.2-0.1,0.3-0.1,0.4c0,0.1-0.1,0.2-0.1,0.2c-0.1,0.6-0.6,1.2-1,1.5C34.1,50.5,33.7,50.6,33.4,50.6z"/>
		<path clip-path="url(#SVGID_00000054239544163673818750000010349892936397914010_)" fill="#FFFFFF" d="M34.3,45.1
			c-0.8,0.3-1.5,0.5-2.2,0.9l-0.7,0.4c0.1,0.5,0.3,2.1,0.7,2.4c0.1,0.1,0.3,0.1,0.5,0.1c0.1,0,0.1,0,0.2,0c0.4-0.2,0.4-0.5,0.6-0.7
			l0,0c0.1,0.2,0.1,0.4,0,0.6c-0.1,0.2-0.2,0.3-0.3,0.4c-0.4,0.2-0.6,0.2-1,0.1c0.2,0.3,0.5,0.6,1,0.7c0.4,0.1,0.7-0.1,1-0.3
			c0.3-0.2,0.7-0.7,0.8-1.2c0-0.2,0.2-0.4,0.2-0.6c0.2-1,0-2.1-0.4-3L34.3,45.1z"/>
		<path clip-path="url(#SVGID_00000054239544163673818750000010349892936397914010_)" fill="#3D0204" d="M31.1,46.5
			c-0.1,0-0.2,0-0.3-0.1c-0.2-0.1-0.3-0.3-0.3-0.4c-0.1-0.4-0.1-0.8-0.2-1.2c0-0.3,0.1-0.5,0.3-0.6c0.4-0.2,0.7-0.4,1.1-0.5
			c0,0,0,0,0.1,0c0.2-0.1,0.4-0.2,0.7-0.3c0.6-0.3,1.3-0.6,2-0.6c0.1,0,0.2,0,0.2,0c0.1,0,0.2,0,0.3,0.1c0.5,0.3,0.7,1.1,0.8,1.4
			c0,0.1,0,0.2,0,0.4c0,0.1-0.1,0.2-0.2,0.3c-0.3,0.2-0.7,0.3-1.1,0.4c-0.1,0-0.3,0.1-0.4,0.1c-0.4,0.1-1,0.3-1.5,0.6
			c-0.3,0.2-0.7,0.3-1,0.5C31.3,46.4,31.2,46.5,31.1,46.5z"/>
		<path clip-path="url(#SVGID_00000054239544163673818750000010349892936397914010_)" fill="#FFFFFF" d="M35.1,44.2
			c0-0.3-0.3-0.8-0.5-1c-0.8,0-1.9,0.6-2.7,0.9c-0.4,0.2-0.7,0.3-1,0.5c0.1,0.4,0.1,0.8,0.2,1.2c0.4-0.2,0.7-0.3,1.1-0.5
			c0.5-0.2,1.1-0.4,1.6-0.6c0.4-0.1,1-0.2,1.3-0.4C35.1,44.3,35.1,44.2,35.1,44.2z"/>
		<path clip-path="url(#SVGID_00000054239544163673818750000010349892936397914010_)" fill="#3D0204" d="M30.8,44.7
			c-0.1,0-0.2,0-0.3,0c-0.2-0.1-0.3-0.2-0.3-0.4c-0.3-1.2-0.7-2.7-1.4-4c-0.4-0.8-0.8-1.5-1.2-2.3c-0.1-0.2-0.3-0.5-0.4-0.7
			c-0.1-0.2-0.1-0.4,0-0.5c0.2-0.4,0.3-0.8,0.4-1.2c0.1-0.2,0.2-0.3,0.4-0.4c0.1,0,0.1,0,0.2,0c0.1,0,0.3,0,0.4,0.1l0.2,0.1
			c1.8,1.2,3.5,2.8,4.8,4.9c0.6,0.9,1,1.6,1.3,2.3c0.1,0.2,0.1,0.3,0,0.5c-0.1,0.2-0.2,0.3-0.4,0.3c-0.2,0-0.4,0.1-0.7,0.2
			c-0.4,0.1-0.9,0.3-1.3,0.5c0,0,0,0-0.1,0c-0.3,0.1-0.6,0.3-0.8,0.4c-0.1,0-0.2,0.1-0.3,0.1C31,44.7,30.9,44.7,30.8,44.7z"/>
		<path clip-path="url(#SVGID_00000054239544163673818750000010349892936397914010_)" fill="#FFFFFF" d="M33.4,43
			c0.2-0.1,0.5-0.1,0.7-0.2c-0.3-0.8-0.7-1.5-1.2-2.2c-1.2-1.9-2.8-3.5-4.6-4.7l-0.2-0.1c-0.1,0.4-0.3,0.8-0.4,1.2
			c0.6,1,1.2,2,1.7,3c0.6,1.3,1.1,2.7,1.4,4.1c0.4-0.2,0.8-0.5,1.2-0.6C32.4,43.3,32.9,43.1,33.4,43z"/>
		<path clip-path="url(#SVGID_00000054239544163673818750000010349892936397914010_)" fill="#BE1E2D" d="M30.9,44.6
			c0.3-0.2,0.7-0.4,1-0.5c0,0.3-0.1,0.5-0.2,0.8c0.2,0.1,0.3,0.3,0.4,0.4l0.1,0c-0.4,0.2-0.7,0.3-1.1,0.5C31,45.5,31,45,30.9,44.6z"
			/>
		<path clip-path="url(#SVGID_00000054239544163673818750000010349892936397914010_)" fill="#BE1E2D" d="M34.3,45.1l0.4-0.1
			c0.4,0.9,0.6,2,0.4,3c0,0.2-0.2,0.4-0.2,0.6c-0.3,0.4-0.7,0.8-1.2,0.9c-0.1,0-0.2,0-0.3,0c0.5-0.2,0.8-0.4,1.1-0.9
			c0.4-0.8,0.3-2,0.1-2.8C34.5,45.6,34.4,45.3,34.3,45.1z"/>
		<path clip-path="url(#SVGID_00000054239544163673818750000010349892936397914010_)" fill="#BE1E2D" d="M31.4,46.4l0.7-0.4
			c0,0.3,0.1,0.7,0.1,1c0.1,0.6,0.2,1.3,0.6,1.8c-0.1,0-0.1,0-0.2,0c-0.2,0-0.3,0-0.5-0.1C31.7,48.5,31.5,46.9,31.4,46.4z"/>
		<path clip-path="url(#SVGID_00000054239544163673818750000010349892936397914010_)" fill="#BE1E2D" d="M32.1,46
			c0.7-0.3,1.4-0.6,2.2-0.9c0.1,0.2,0.2,0.5,0.2,0.7c-0.1,0.1-0.3,0.2-0.5,0.2c-0.7,0.2-1.3,0.6-1.9,1C32.2,46.7,32.1,46.3,32.1,46z
			"/>
		<path clip-path="url(#SVGID_00000054239544163673818750000010349892936397914010_)" fill="#ED1C24" d="M31.9,44.1
			c0.8-0.3,1.8-0.9,2.7-0.9c0.2,0.2,0.5,0.7,0.5,1c0,0,0,0.1,0,0.1c-0.3,0.2-1,0.3-1.3,0.4c-0.5,0.2-1.1,0.4-1.6,0.6l-0.1,0
			c-0.1-0.2-0.2-0.3-0.4-0.4C31.8,44.6,31.9,44.4,31.9,44.1z"/>
		<path clip-path="url(#SVGID_00000054239544163673818750000010349892936397914010_)" fill="#BE1E2D" d="M34.6,43.2
			c0.2,0.2,0.5,0.7,0.5,1c0,0,0,0.1,0,0.1c-0.1,0-0.3,0.1-0.4,0.1c-0.1-0.2-0.3-0.9-0.3-1.1L34.6,43.2z"/>
		<path clip-path="url(#SVGID_00000054239544163673818750000010349892936397914010_)" fill="#ED1C24" d="M34.5,45.8
			c0.3,0.8,0.3,2-0.1,2.8c-0.2,0.5-0.6,0.7-1.1,0.9c-0.1-0.1-0.2-0.2-0.3-0.3c0.1-0.1,0.2-0.2,0.3-0.4c0.1-0.2,0.1-0.4,0-0.6l0,0
			c-0.3,0.2-0.2,0.5-0.6,0.7c-0.4-0.5-0.5-1.2-0.6-1.8c0.6-0.4,1.2-0.8,1.9-1C34.2,46,34.4,45.9,34.5,45.8z"/>
		<path clip-path="url(#SVGID_00000054239544163673818750000010349892936397914010_)" fill="#BCBEC0" d="M28.1,35.8l0.2,0.1
			c0,0.4,0.3,0.9,0.5,1.2c0.5,1,1.1,1.8,1.6,2.8c0.4,0.8,0.8,1.5,1.1,2.3c0.2,0.4,0.3,0.9,0.5,1.3c-0.4,0.1-0.8,0.4-1.2,0.6
			c-0.4-1.4-0.8-2.8-1.4-4.1c-0.5-1-1.1-2-1.7-3C27.8,36.5,28,36.2,28.1,35.8z"/>
		<path clip-path="url(#SVGID_00000054239544163673818750000010349892936397914010_)" fill="#FFFFFF" d="M28.3,35.9
			c1.9,1.2,3.4,2.8,4.6,4.7c0.5,0.7,0.9,1.4,1.2,2.2c-0.3,0.1-0.5,0.1-0.7,0.2c-0.5,0.1-0.9,0.3-1.4,0.5c-0.2-0.4-0.3-0.9-0.5-1.3
			c-0.3-0.8-0.7-1.6-1.1-2.3c-0.5-0.9-1.2-1.8-1.6-2.8C28.5,36.7,28.3,36.3,28.3,35.9z"/>
		<g clip-path="url(#SVGID_00000054239544163673818750000010349892936397914010_)">
			<path fill="#FC7D27" d="M28.5,41.2c-2.3,0.8-5.2,1.2-6,2.9l0-0.1v0.1c-0.8-1.7-3.7-2.1-6-2.9c0.3-0.6,0.5-1.1,0.7-1.6
				c0,0,0.7-2.4,5.3-2.4c4.7,0,5.3,2.4,5.3,2.4C28,40.1,28.2,40.6,28.5,41.2z"/>
		</g>
		<path clip-path="url(#SVGID_00000054239544163673818750000010349892936397914010_)" fill="#93B3C1" d="M24.4,39.4
			c-0.6,0.1-1.3,0.1-1.9,0.1c-0.7,0-1.3,0-1.9-0.1c0.6-0.2,1.2-0.4,1.9-0.4v0C23.2,39,23.8,39.1,24.4,39.4z"/>
		<g clip-path="url(#SVGID_00000054239544163673818750000010349892936397914010_)">
			<path fill="#BE1E2D" d="M27.8,37.1c1,2.7,4.9,9,1.9,13.5l-3.2,3.2c-0.8,0.5-2.2,0.9-4.1,0.9s-3.3-0.5-4.1-0.9l-3.2-3.2
				c-2.9-4.5,0.9-10.8,1.9-13.5c0,0,0.7-2.4,5.3-2.4S27.8,37.1,27.8,37.1z"/>
		</g>
		<g clip-path="url(#SVGID_00000054239544163673818750000010349892936397914010_)">
			<path fill="#BE1E2D" d="M30.8,47.6c-0.1,1-0.4,2.1-1,3l-3.2,3.2c-0.8,0.5-2.2,0.9-4.1,0.9c-1.9,0-3.3-0.5-4.1-0.9l-3.2-3.2
				c-0.6-0.9-0.9-1.9-1-3c-0.4-4,2.2-8.3,3-10.5c0,0,0.7-2.4,5.3-2.4s5.3,2.4,5.3,2.4C28.6,39.2,31.2,43.6,30.8,47.6z"/>
		</g>
		<g clip-path="url(#SVGID_00000054239544163673818750000010349892936397914010_)">
			<path fill="#BE1E2D" d="M30.8,47.6c-0.1,1-0.4,2.1-1,3l-3.2,3.2c-0.8,0.5-2.2,0.9-4.1,0.9c-1.9,0-3.3-0.5-4.1-0.9l-3.2-3.2
				c-0.6-0.9-0.9-1.9-1-3c-0.4-4,2.2-8.3,3-10.5c0,0,0.7-2.4,5.3-2.4s5.3,2.4,5.3,2.4C28.6,39.2,31.2,43.6,30.8,47.6z"/>
		</g>
		<path clip-path="url(#SVGID_00000054239544163673818750000010349892936397914010_)" fill="#BE1E2D" d="M26.6,38.9
			c-1.3,0.5-2.2,0.6-4.1,0.6c-1.9,0-2.7,0-4.1-0.6c0.6-1.3,1.2-3.9,4.1-3.9C25.3,35,25.9,37.7,26.6,38.9z"/>
		<path clip-path="url(#SVGID_00000054239544163673818750000010349892936397914010_)" fill="#F9D3B7" d="M26.6,38.9
			c-1.2,0.4-2.6,0.6-4.1,0.6c-1.5,0-2.9-0.2-4.1-0.6c0.2-0.7,0.3-1.2,0.2-1.6c0.3-1.5,2.6-1.1,3.9-1.1c1.3,0,3.6-0.3,3.9,1.1
			C26.2,37.7,26.3,38.2,26.6,38.9z"/>
		<path clip-path="url(#SVGID_00000054239544163673818750000010349892936397914010_)" fill="#F1F2F2" d="M22.5,33.6
			c1.3,0,3.6-0.3,3.9,1.1c-0.6,1.4,2.7,6,2.9,11.2c0.3,2.9-1.5,7-6.8,7.2c-5.3-0.2-7.2-4.3-6.8-7.2c0.3-5.1,3.5-9.8,2.9-11.2
			C18.9,33.3,21.2,33.6,22.5,33.6z"/>
		<path clip-path="url(#SVGID_00000054239544163673818750000010349892936397914010_)" fill="#BCBEC0" d="M26.9,37.4
			c-1.3,0.4-2.8,0.6-4.4,0.6c-1.6,0-3.1-0.2-4.4-0.6c0.2-0.8,0.3-1.3,0.2-1.7c0.3-1.6,2.8-1.2,4.2-1.2c1.4,0,3.9-0.4,4.2,1.2
			C26.5,36.1,26.6,36.7,26.9,37.4z"/>
		<g clip-path="url(#SVGID_00000054239544163673818750000010349892936397914010_)">
			<g>
				<g>
					<path fill="#3D0204" d="M15.2,50.6c-1.2-1.4-1.5-3.3-1.3-5.2c0.2-1.8,0.9-3.5,1.6-5.1c0.5-1.1,1.1-2.1,1.6-3.1
						c-0.3,1-0.9,2.4-1.2,3.3c-0.5,1.4-1,2.7-1.3,4.2C14.2,46.7,14.3,48.6,15.2,50.6L15.2,50.6z"/>
				</g>
			</g>
			<g>
				<g>
					<path fill="#3D0204" d="M29.8,50.6c0.9-2,1-3.8,0.6-6c-0.3-1.4-0.8-2.8-1.3-4.2c-0.4-1-0.9-2.3-1.2-3.3c0.5,1,1.1,2.1,1.6,3.1
						c0.7,1.6,1.4,3.3,1.6,5.1C31.3,47.2,31,49.2,29.8,50.6L29.8,50.6z"/>
				</g>
			</g>
		</g>
		<path clip-path="url(#SVGID_00000054239544163673818750000010349892936397914010_)" fill="#BC202E" d="M23.1,39.1
			c1.5,0,2.7,1.2,2.7,2.6c0,1.5-1.2,2.6-2.7,2.6v-0.9c0.9,0,1.6-0.7,1.6-1.6c0-0.9-0.7-1.6-1.6-1.6V39.1z"/>
		<path clip-path="url(#SVGID_00000054239544163673818750000010349892936397914010_)" d="M22.9,39.1h-2.1c-0.3,0-0.6,0.3-0.6,0.6
			v4.2c0,0.2,0.2,0.4,0.4,0.4h2.3v-0.9h-1.2l0,0c-0.1,0-0.3-0.1-0.3-0.3l0,0v-2.5l0,0c0-0.2,0.2-0.4,0.4-0.4l0,0h1.1V39.1z"/>
		<path clip-path="url(#SVGID_00000054239544163673818750000010349892936397914010_)" d="M36,21c0.3,1,0.5,2,0.6,2.8
			c0.3,0.5,0.5,1,0.7,1.6c0.4,1.1,0.5,2.3,0.3,3.5c0.1,0.2,0.3,0.3,0.4,0.3c0.1,0,0.1,0,0.2,0l1.2-0.3c1.7-0.4,2.9-2.1,2.5-3.8
			l-0.5-2.2c-0.4-1.7-2.1-2.9-3.8-2.5l-1.2,0.3c0,0,0,0,0,0C36.2,20.7,36.1,20.8,36,21z"/>
		<path clip-path="url(#SVGID_00000054239544163673818750000010349892936397914010_)" fill="#231F20" d="M38.4,24L38.4,24L38.4,24
			C38.4,23.9,38.4,24,38.4,24z"/>
		<g clip-path="url(#SVGID_00000054239544163673818750000010349892936397914010_)">
			<path fill="#FFFFFF" d="M38.4,24L38.4,24L38.4,24C38.4,23.9,38.4,24,38.4,24z"/>
		</g>
		<path clip-path="url(#SVGID_00000054239544163673818750000010349892936397914010_)" fill="#231F20" d="M38.4,24L38.4,24L38.4,24
			C38.4,23.9,38.4,24,38.4,24z"/>
		<path clip-path="url(#SVGID_00000054239544163673818750000010349892936397914010_)" d="M10,20.6c-0.3,1-0.5,2-0.6,2.8
			c-0.3,0.5-0.5,1-0.7,1.6c-0.4,1.1-0.5,2.3-0.3,3.5c-0.1,0.2-0.3,0.3-0.4,0.3c-0.1,0-0.1,0-0.2,0l-1.2-0.3
			c-1.7-0.4-2.9-2.1-2.5-3.8l0.5-2.2c0.4-1.7,2.1-2.9,3.8-2.5l1.2,0.3c0,0,0,0,0,0C9.8,20.3,10,20.4,10,20.6z"/>
		<g clip-path="url(#SVGID_00000054239544163673818750000010349892936397914010_)">
			<rect x="7.7" y="22.2" transform="matrix(0.978 0.2087 -0.2087 0.978 5.2489 -1.1142)" width="0.4" height="4.2"/>
			<rect x="6.6" y="22.5" transform="matrix(0.978 0.2087 -0.2087 0.978 5.175 -0.8875)" width="0.4" height="3.1"/>
			<rect x="5.5" y="22.8" transform="matrix(0.978 0.2087 -0.2087 0.978 5.1042 -0.6706)" width="0.4" height="2.2"/>
		</g>
		<path clip-path="url(#SVGID_00000054239544163673818750000010349892936397914010_)" d="M38.1,20.4c-0.2,0-0.3,0-0.5,0.1l-1.2,0.3
			c-0.7-1.9-1.8-3.7-3.3-5.1c-2.6-2.6-6.1-4.2-10-4.2c-6.1,0-11.3,3.9-13.3,9.3h0c0,0,0,0,0,0l-1.3-0.3c-0.2,0-0.3-0.1-0.5-0.1
			c2-6.4,8-11,15-11c4.4,0,8.3,1.8,11.2,4.6C36,15.9,37.3,18,38.1,20.4z"/>
		<path clip-path="url(#SVGID_00000054239544163673818750000010349892936397914010_)" fill="#3D0204" d="M23,36.6
			c-1.8,0-3.6-0.2-3.7-0.2c-3.6-0.4-8.1-2-9.9-5.2c-1.1-2-1.4-4.1-0.7-6.3c0.2-0.5,0.4-1.1,0.7-1.6c0.2-1.2,1-4.9,2.9-7.6
			c0,0,0,0,0,0l1.7-2c0,0,0,0,0,0c2.3-2,5.3-3.1,9-3.1c3.7,0,6.7,1,9,3.1c0,0,0,0,0,0l1.7,2c0,0,0,0,0,0c1.9,2.7,2.7,6.4,2.9,7.6
			c0.3,0.5,0.5,1.1,0.7,1.6c0,0,0,0,0,0c0.7,2.2,0.5,4.3-0.7,6.3c-1.9,3.2-6.4,4.8-9.9,5.2C26.6,36.4,24.7,36.6,23,36.6z"/>
		<path clip-path="url(#SVGID_00000054239544163673818750000010349892936397914010_)" fill="#D81F26" d="M36.2,30.9
			c-1.7,3-6.1,4.6-9.6,5c0,0-1.9,0.2-3.7,0.2c-1.8,0-3.7-0.2-3.7-0.2c-3.5-0.4-7.9-2-9.6-5c-1.2-2.1-1.2-4.1-0.6-6
			c0.2-0.5,0.4-1.1,0.7-1.6c0.3-1.9,1.1-5.1,2.8-7.5l1.7-2c1.9-1.7,4.7-3,8.7-3c4,0,6.8,1.2,8.7,3l1.7,2c1.7,2.4,2.5,5.6,2.8,7.5
			c0.3,0.5,0.5,1,0.7,1.6c0,0,0,0,0,0C37.4,26.8,37.4,28.8,36.2,30.9z"/>
		<path clip-path="url(#SVGID_00000054239544163673818750000010349892936397914010_)" fill="#D81F26" d="M36.2,30.9
			c-1.7,3-6.1,4.6-9.6,5c0,0-1.9,0.2-3.7,0.2c-1.8,0-3.7-0.2-3.7-0.2c-3.5-0.4-7.9-2-9.6-5c-1.2-2.1-1.2-4.1-0.6-6
			c1.4-1.2,3.8-1.7,5.8-0.6c1,0.6,2.4,1,3.4,0.7c1.4-0.4,2.2-2.3,4.7-2.3c2.5,0,3.3,1.9,4.7,2.3c1,0.3,2.4-0.2,3.4-0.7
			c2-1.2,4.4-0.6,5.8,0.6c0,0,0,0,0,0C37.4,26.8,37.4,28.8,36.2,30.9z"/>
		<path clip-path="url(#SVGID_00000054239544163673818750000010349892936397914010_)" fill="#231F20" d="M41.7,25l-0.5-2.2
			c-0.3-1.6-1.9-2.7-3.5-2.5c-0.8-2.3-2-4.3-3.7-6c-2.8-2.8-6.6-4.5-10.9-4.5c-6.6,0-12.3,4.2-14.4,10.1l-0.1,0
			c-1.7-0.4-3.5,0.7-3.8,2.5l-0.5,2.2c-0.4,1.7,0.7,3.5,2.5,3.8l1.2,0.3c0.1,0,0.1,0,0.2,0c0.2,0,0.3-0.1,0.4-0.3
			c-0.2-1.2-0.1-2.4,0.3-3.5c0.2-0.5,0.4-1.1,0.7-1.6c0.1-0.7,0.3-1.6,0.6-2.5c0,0,0,0,0,0h0c1.9-5.3,7-9,12.9-9
			c3.8,0,7.3,1.5,9.7,4c1.4,1.4,2.4,3,3.1,4.9c-0.1,0.1-0.2,0.2-0.3,0.3c0.3,1,0.5,2,0.6,2.8c0.3,0.5,0.5,1,0.7,1.6
			c0.4,1.1,0.5,2.3,0.3,3.5c0.1,0.2,0.3,0.3,0.4,0.3c0.1,0,0.1,0,0.2,0l1.2-0.3C41,28.5,42.1,26.8,41.7,25z"/>
		<path clip-path="url(#SVGID_00000054239544163673818750000010349892936397914010_)" fill="#FFFFFF" d="M27.6,34.4h-9.2
			c-4.1,0-7.4-3.3-7.4-7.4v-1.7c0-5.6,4.6-10.2,10.2-10.2h3.6c5.6,0,10.2,4.6,10.2,10.2V27C35,31.1,31.7,34.4,27.6,34.4z"/>
		
			<ellipse clip-path="url(#SVGID_00000054239544163673818750000010349892936397914010_)" fill="#FF8080" cx="33.2" cy="26.4" rx="3.3" ry="2.4"/>
		<path clip-path="url(#SVGID_00000054239544163673818750000010349892936397914010_)" fill="#231F20" d="M15.1,16.9
			c0.6-0.4,3.2-1,3.4,0.6c0.1,0.6-0.7,1.2-1.2,0.9C16.4,17.9,16.4,17.7,15.1,16.9z"/>
		<path clip-path="url(#SVGID_00000054239544163673818750000010349892936397914010_)" fill="#231F20" d="M31.2,16.9
			c-0.6-0.4-3.2-1-3.4,0.6c-0.1,0.6,0.7,1.2,1.2,0.9C29.8,17.9,29.9,17.7,31.2,16.9z"/>
		<g clip-path="url(#SVGID_00000054239544163673818750000010349892936397914010_)">
			<path fill="#363D56" d="M28.8,29.1c-0.4,2-2.7,3.1-5.8,3.1c-3.2,0-5.4-1.1-5.8-3.1c-0.3-1.8,0.4-2.9,1.2-3.3
				c0.2-0.1,0.3-0.1,0.5-0.1c1.3-0.3,2.4,0.7,4.2,0.7c1.8,0,2.8-1,4.2-0.7c0.1,0,0.3,0.1,0.5,0.1C28.3,26.2,29.1,27.4,28.8,29.1z"/>
		</g>
		<g clip-path="url(#SVGID_00000054239544163673818750000010349892936397914010_)">
			<path fill="#231F20" d="M28.8,29.1c-0.2,1.1-0.9,1.9-2,2.4c-1,0.5-2.3,0.7-3.8,0.7c-1.5,0-2.8-0.2-3.8-0.7
				c-1.1-0.5-1.9-1.3-2.1-2.4c-0.3-1.8,0.4-2.9,1.2-3.3c0.2-0.1,0.3-0.1,0.5-0.1c1.3-0.3,2.4,0.7,4.2,0.7c1.8,0,2.8-1,4.2-0.7
				c0.1,0,0.3,0.1,0.5,0.1C28.3,26.2,29.1,27.4,28.8,29.1z"/>
		</g>
		<g clip-path="url(#SVGID_00000054239544163673818750000010349892936397914010_)">
			<path fill="#FC9595" d="M25.4,29.5c0.8,0.3,0.2,2-2.5,2s-3.2-1.7-2.4-2c0,0,0,0,0,0c0.7-0.3,1.9,0.1,2.4,0.9
				C23.5,29.5,24.7,29.2,25.4,29.5C25.4,29.5,25.4,29.5,25.4,29.5z"/>
		</g>
		<g clip-path="url(#SVGID_00000054239544163673818750000010349892936397914010_)">
			<path fill="#FFFFFF" d="M27.1,25.8c0,2.3-2.9,2.5-4.2,2.5c-1.3,0-4.2-0.2-4.2-2.5c0,0,0,0,0,0c1.3-0.3,2.4,0.7,4.2,0.7
				C24.7,26.5,25.8,25.5,27.1,25.8C27.1,25.7,27.1,25.7,27.1,25.8z"/>
		</g>
		<g clip-path="url(#SVGID_00000054239544163673818750000010349892936397914010_)">
			<path fill="#231F20" d="M23,32.5c-3.4,0-5.7-1.2-6.1-3.3c-0.3-1.8,0.4-3.2,1.4-3.6c1-0.4,1.8-0.1,2.6,0.1
				c0.6,0.2,1.3,0.4,2.1,0.4c0.8,0,1.5-0.2,2.1-0.4c0.8-0.3,1.7-0.5,2.6-0.1c0.9,0.4,1.7,1.7,1.4,3.6C28.6,31.3,26.4,32.5,23,32.5z
				 M19.2,25.9c-0.3,0-0.5,0-0.8,0.2c-0.6,0.3-1.4,1.3-1.1,3c0.3,1.8,2.4,2.9,5.6,2.9c3.1,0,5.2-1.1,5.6-2.9c0.3-1.7-0.5-2.7-1.1-3
				c-0.8-0.3-1.4-0.1-2.3,0.2c-0.6,0.2-1.4,0.4-2.3,0.4c-0.9,0-1.6-0.2-2.3-0.4C20.2,26.1,19.7,25.9,19.2,25.9z"/>
		</g>
		<g clip-path="url(#SVGID_00000054239544163673818750000010349892936397914010_)">
			<g>
				<g>
					<ellipse fill="#231F20" cx="17.3" cy="22.1" rx="2.7" ry="3.1"/>
				</g>
			</g>
		</g>
		<g clip-path="url(#SVGID_00000054239544163673818750000010349892936397914010_)">
			<g>
				<g>
					<ellipse fill="#FFFFFF" cx="17.8" cy="21.4" rx="1.1" ry="1.3"/>
				</g>
			</g>
		</g>
		<g opacity="0.6" clip-path="url(#SVGID_00000054239544163673818750000010349892936397914010_)">
			<g>
				<g>
					<ellipse fill="#FFFFFF" cx="16.3" cy="23.3" rx="0.5" ry="0.6"/>
				</g>
			</g>
		</g>
		<g clip-path="url(#SVGID_00000054239544163673818750000010349892936397914010_)">
			<g>
				<g>
					<ellipse fill="#231F20" cx="28.6" cy="22.1" rx="2.7" ry="3.1"/>
				</g>
			</g>
		</g>
		<g clip-path="url(#SVGID_00000054239544163673818750000010349892936397914010_)">
			<g>
				<g>
					<ellipse fill="#FFFFFF" cx="28.1" cy="21.4" rx="1.1" ry="1.3"/>
				</g>
			</g>
		</g>
		<g opacity="0.6" clip-path="url(#SVGID_00000054239544163673818750000010349892936397914010_)">
			<g>
				<g>
					<ellipse fill="#FFFFFF" cx="29.6" cy="23.3" rx="0.5" ry="0.6"/>
				</g>
			</g>
		</g>
		
			<ellipse clip-path="url(#SVGID_00000054239544163673818750000010349892936397914010_)" fill="#FF8080" cx="12.7" cy="26.4" rx="3.3" ry="2.4"/>
		
			<rect x="37.9" y="22.6" transform="matrix(-0.978 0.2087 -0.2087 -0.978 80.5717 40.9163)" clip-path="url(#SVGID_00000054239544163673818750000010349892936397914010_)" fill="#FFFFFF" width="0.4" height="4.2"/>
		
			<rect x="39" y="22.9" transform="matrix(-0.978 0.2087 -0.2087 -0.978 82.7197 40.2156)" clip-path="url(#SVGID_00000054239544163673818750000010349892936397914010_)" fill="#FFFFFF" width="0.4" height="3.1"/>
		
			<rect x="40.1" y="23.1" transform="matrix(-0.978 0.2087 -0.2087 -0.978 84.7762 39.5447)" clip-path="url(#SVGID_00000054239544163673818750000010349892936397914010_)" fill="#FFFFFF" width="0.4" height="2.2"/>
		
			<rect x="7.7" y="22.2" transform="matrix(0.978 0.2087 -0.2087 0.978 5.2489 -1.1142)" clip-path="url(#SVGID_00000054239544163673818750000010349892936397914010_)" fill="#FFFFFF" width="0.4" height="4.2"/>
		
			<rect x="6.6" y="22.5" transform="matrix(0.978 0.2087 -0.2087 0.978 5.175 -0.8875)" clip-path="url(#SVGID_00000054239544163673818750000010349892936397914010_)" fill="#FFFFFF" width="0.4" height="3.1"/>
		
			<rect x="5.5" y="22.8" transform="matrix(0.978 0.2087 -0.2087 0.978 5.1042 -0.6706)" clip-path="url(#SVGID_00000054239544163673818750000010349892936397914010_)" fill="#FFFFFF" width="0.4" height="2.2"/>
		<circle clip-path="url(#SVGID_00000054239544163673818750000010349892936397914010_)" fill="#231F20" cx="28" cy="33.1" r="1.4"/>
		
			<path clip-path="url(#SVGID_00000054239544163673818750000010349892936397914010_)" fill="none" stroke="#231F20" stroke-width="0.9274" stroke-miterlimit="10" d="
			M38.5,28.2c0,0-4.7,4.9-9.8,5.1"/>
		<g clip-path="url(#SVGID_00000054239544163673818750000010349892936397914010_)">
			<defs>
				<polygon id="SVGID_00000183240955711307920060000012910186582867578019_" points="17.8,36.1 16.2,38.9 9.3,37.9 4.8,28.1 
					5.5,24.7 10.3,24.7 16.3,28.5 				"/>
			</defs>
			<clipPath id="SVGID_00000025429084131701408870000005346700439086225852_">
				<use xlink:href="#SVGID_00000183240955711307920060000012910186582867578019_"  overflow="visible"/>
			</clipPath>
			<path clip-path="url(#SVGID_00000025429084131701408870000005346700439086225852_)" fill="#3D0204" d="M6.9,25.5
				c0.1-0.1,0.3-0.1,0.4-0.1c0.5-0.1,1.1,0,1.7,0.4c0.2,0.1,0.3,0.4,0.3,0.6c0.6,0.3,1,1.1,1.6,2c0.1,0.1,0.1,0.2,0.2,0.3
				c0.1,0.2,0.1,0.5-0.1,0.7l-0.6,0.6c0,0,0,0,0,0c-0.6,0.6-1.2,1.2-1.9,1.7l-0.3,0.3c0,0-0.1,0.1-0.1,0.1c-0.2,0.1-0.5,0.1-0.7-0.2
				c-0.9-0.9-1.5-2.1-1.6-3.1c0-0.2,0-0.3,0-0.5c0-0.1,0-0.2,0-0.2c-0.1-0.7,0.1-1.5,0.5-1.9C6.3,25.9,6.6,25.7,6.9,25.5z"/>
			<path clip-path="url(#SVGID_00000025429084131701408870000005346700439086225852_)" fill="#FFFFFF" d="M8,31.3
				c0.7-0.5,1.3-1.1,1.9-1.7l0.6-0.6c-0.3-0.5-1.1-2-1.6-2.1c-0.2,0-0.4,0-0.5,0.1c-0.1,0-0.1,0.1-0.2,0.1C7.8,27.5,8,27.7,7.8,28
				l0,0c-0.2-0.2-0.2-0.4-0.2-0.7c0-0.2,0.1-0.4,0.2-0.5c0.3-0.3,0.5-0.5,0.9-0.5c-0.4-0.2-0.8-0.4-1.2-0.3
				c-0.4,0.1-0.7,0.3-0.9,0.6c-0.3,0.4-0.4,1-0.4,1.4c0,0.2,0,0.5,0,0.7c0.2,1,0.8,2.1,1.5,2.8L8,31.3z"/>
			<path clip-path="url(#SVGID_00000025429084131701408870000005346700439086225852_)" fill="#3D0204" d="M10.6,28.8
				c0.1,0,0.2-0.1,0.3,0c0.2,0,0.4,0.1,0.5,0.3c0.2,0.4,0.4,0.8,0.6,1.1c0.1,0.2,0.1,0.5-0.1,0.7c-0.3,0.3-0.6,0.7-0.9,0.9
				c0,0,0,0,0,0c-0.2,0.1-0.4,0.3-0.6,0.5c-0.5,0.5-1.1,1.1-1.7,1.3c-0.1,0-0.2,0.1-0.2,0.1c-0.1,0-0.2,0-0.3,0
				c-0.6-0.1-1.1-0.8-1.3-1.1c0-0.1-0.1-0.2-0.1-0.4c0-0.1,0-0.3,0.1-0.4c0.2-0.3,0.6-0.6,1-0.8C8.1,31.1,8.2,31,8.3,31
				c0.4-0.3,0.9-0.7,1.3-1.1c0.3-0.3,0.6-0.6,0.8-0.9C10.5,28.9,10.6,28.8,10.6,28.8z"/>
			<path clip-path="url(#SVGID_00000025429084131701408870000005346700439086225852_)" fill="#FFFFFF" d="M7.6,32.5
				c0.1,0.3,0.6,0.7,0.9,0.8c0.8-0.3,1.6-1.3,2.3-1.8c0.3-0.3,0.6-0.6,0.8-0.9c-0.2-0.4-0.4-0.8-0.7-1.1c-0.3,0.3-0.6,0.6-0.9,0.9
				c-0.4,0.4-0.9,0.8-1.4,1.2c-0.3,0.2-0.9,0.6-1.2,0.9C7.5,32.4,7.5,32.5,7.6,32.5z"/>
			<path clip-path="url(#SVGID_00000025429084131701408870000005346700439086225852_)" fill="#3D0204" d="M11.6,30.4
				c0.1,0,0.2-0.1,0.3-0.1c0.2,0,0.4,0.1,0.5,0.3c0.8,1.1,1.7,2.4,2.9,3.5c0.6,0.6,1.4,1.2,2.1,1.8c0.2,0.2,0.4,0.4,0.7,0.5
				c0.1,0.1,0.2,0.3,0.2,0.5c0,0.5,0,0.9,0,1.3c0,0.2-0.1,0.4-0.2,0.5c0,0-0.1,0.1-0.1,0.1c-0.1,0.1-0.3,0.1-0.4,0l-0.2,0
				c-2.2-0.5-4.4-1.5-6.5-3c-0.9-0.7-1.6-1.2-2.1-1.9c-0.1-0.1-0.2-0.3-0.2-0.5c0-0.2,0.1-0.3,0.3-0.4c0.2-0.1,0.4-0.2,0.6-0.4
				c0.4-0.3,0.8-0.6,1.1-1c0,0,0,0,0.1-0.1c0.2-0.2,0.5-0.5,0.7-0.7c0.1-0.1,0.1-0.2,0.2-0.2C11.5,30.5,11.5,30.5,11.6,30.4z"/>
			<path clip-path="url(#SVGID_00000025429084131701408870000005346700439086225852_)" fill="#FFFFFF" d="M9.7,33.1
				c-0.2,0.2-0.4,0.3-0.7,0.5c0.6,0.7,1.3,1.2,2,1.8c1.9,1.4,4,2.4,6.3,2.9l0.2,0c0-0.4,0-0.9,0-1.3c-0.9-0.8-1.9-1.5-2.8-2.4
				c-1.1-1.1-2.1-2.3-2.9-3.6c-0.3,0.4-0.6,0.8-1,1.1C10.5,32.4,10.1,32.8,9.7,33.1z"/>
			<path clip-path="url(#SVGID_00000025429084131701408870000005346700439086225852_)" fill="#BE1E2D" d="M7.3,26.7
				c-0.1,0-0.2,0-0.3,0.1c-0.5,0.3-0.7,0.8-0.9,1.3c-0.1-0.4,0.1-1.1,0.4-1.4C6.7,26.3,7,26.1,7.4,26c0.4-0.1,0.8,0.1,1.2,0.3
				c-0.4,0.1-0.6,0.2-0.9,0.5C7.6,26.8,7.4,26.7,7.3,26.7z"/>
			<path clip-path="url(#SVGID_00000025429084131701408870000005346700439086225852_)" fill="#BE1E2D" d="M11.6,30.5
				c-0.3,0.3-0.6,0.6-0.8,0.9c-0.1-0.3-0.1-0.5-0.1-0.9c-0.2-0.1-0.4-0.2-0.5-0.3l-0.1,0c0.3-0.3,0.6-0.6,0.9-0.9
				C11.1,29.8,11.3,30.1,11.6,30.5z"/>
			<path clip-path="url(#SVGID_00000025429084131701408870000005346700439086225852_)" fill="#BE1E2D" d="M8,31.3l-0.3,0.3
				c-0.7-0.8-1.3-1.8-1.5-2.8c0-0.2,0-0.5,0-0.7C6.3,27.6,6.5,27,7,26.7c0.1,0,0.2-0.1,0.3-0.1c-0.4,0.4-0.7,0.7-0.7,1.3
				c-0.1,0.9,0.4,2.1,1,2.8C7.7,30.9,7.8,31.1,8,31.3z"/>
			<path clip-path="url(#SVGID_00000025429084131701408870000005346700439086225852_)" fill="#BE1E2D" d="M10.4,29l-0.6,0.6
				c-0.2-0.3-0.3-0.6-0.5-1C9,28.1,8.7,27.4,8.1,27c0,0,0.1-0.1,0.2-0.1c0.2-0.1,0.3-0.1,0.5-0.1C9.4,27,10.1,28.5,10.4,29z"/>
			<path clip-path="url(#SVGID_00000025429084131701408870000005346700439086225852_)" fill="#BE1E2D" d="M9.9,29.6
				c-0.6,0.6-1.2,1.2-1.9,1.7c-0.2-0.2-0.3-0.4-0.5-0.6c0-0.1,0.3-0.3,0.4-0.4c0.6-0.5,1.1-1,1.5-1.7C9.5,29,9.7,29.3,9.9,29.6z"/>
			<path clip-path="url(#SVGID_00000025429084131701408870000005346700439086225852_)" fill="#ED1C24" d="M10.7,31.4
				C10.1,32,9.2,33,8.4,33.3c-0.3-0.1-0.7-0.5-0.9-0.8c0,0,0-0.1,0-0.1c0.2-0.3,0.8-0.7,1.2-0.9c0.5-0.4,0.9-0.8,1.4-1.2l0.1,0
				c0.2,0.1,0.3,0.2,0.5,0.3C10.6,30.9,10.6,31.1,10.7,31.4z"/>
			<path clip-path="url(#SVGID_00000025429084131701408870000005346700439086225852_)" fill="#BE1E2D" d="M8.4,33.3
				c-0.3-0.1-0.7-0.5-0.9-0.8c0,0,0-0.1,0-0.1c0.1-0.1,0.2-0.1,0.4-0.2c0.2,0.2,0.7,0.8,0.7,1L8.4,33.3z"/>
			<path clip-path="url(#SVGID_00000025429084131701408870000005346700439086225852_)" fill="#ED1C24" d="M7.5,30.7
				c-0.5-0.7-1.1-1.9-1-2.8c0.1-0.6,0.3-0.9,0.7-1.3c0.1,0,0.3,0.1,0.4,0.2c-0.1,0.2-0.1,0.3-0.2,0.5c0,0.3,0,0.5,0.2,0.7l0,0
				c0.2-0.3,0-0.5,0.4-0.9c0.6,0.4,0.9,1,1.2,1.6c-0.4,0.6-0.9,1.2-1.5,1.7C7.8,30.4,7.6,30.6,7.5,30.7z"/>
			<path clip-path="url(#SVGID_00000025429084131701408870000005346700439086225852_)" fill="#BCBEC0" d="M17.6,38.3l-0.2,0
				c-0.2-0.4-0.6-0.7-0.9-1c-0.8-0.8-1.8-1.4-2.6-2.1c-0.7-0.6-1.4-1.2-2-1.9c-0.3-0.4-0.6-0.7-1-1.1c0.4-0.3,0.7-0.7,1-1.1
				c0.9,1.3,1.8,2.5,2.9,3.6c0.9,0.8,1.8,1.6,2.8,2.4C17.6,37.4,17.6,37.8,17.6,38.3z"/>
			<path clip-path="url(#SVGID_00000025429084131701408870000005346700439086225852_)" fill="#FFFFFF" d="M17.4,38.2
				c-2.3-0.5-4.4-1.6-6.3-2.9c-0.7-0.5-1.4-1.1-2-1.8c0.2-0.1,0.5-0.3,0.7-0.5c0.4-0.3,0.8-0.7,1.2-1c0.3,0.4,0.6,0.7,1,1.1
				c0.6,0.7,1.3,1.3,2,1.9c0.9,0.7,1.8,1.4,2.6,2.1C16.8,37.5,17.2,37.8,17.4,38.2z"/>
		</g>
	</g>
</g>
</svg>
