<svg width="140" height="140" viewBox="0 0 140 140" fill="none" xmlns="http://www.w3.org/2000/svg">
<ellipse opacity="0.1" cx="70" cy="135.802" rx="70" ry="4.2" fill="#99A1AF"/>
<path fill-rule="evenodd" clip-rule="evenodd" d="M107.007 21.2353C107.007 19.1982 105.356 17.5469 103.319 17.5469C101.282 17.5469 99.6302 19.1982 99.6302 21.2353V28.823C99.6302 30.8601 101.282 32.5114 103.319 32.5114C105.356 32.5114 107.007 30.8601 107.007 28.823V21.2353ZM103.319 20.3469C103.809 20.3469 104.207 20.7446 104.207 21.2353V28.823C104.207 29.3137 103.809 29.7114 103.319 29.7114C102.828 29.7114 102.43 29.3137 102.43 28.823V21.2353C102.43 20.7446 102.828 20.3469 103.319 20.3469ZM14 47.6017C14 40.6429 19.6412 35.0017 26.6 35.0017H91C97.9588 35.0017 103.6 40.6429 103.6 47.6017V58.8016H114.8C120.212 58.8016 124.6 63.1892 124.6 68.6016V103.322C124.6 108.734 120.212 113.121 114.8 113.121H111.151V118.194C111.151 121.858 106.787 123.765 104.098 121.276L95.2902 113.121H57.4C51.9876 113.121 47.6 108.734 47.6 103.322V98.8969L36.7982 108.979C34.1135 111.484 29.7325 109.58 29.7325 105.908V98.5615H26.6C19.6412 98.5615 14 92.9203 14 85.9615V47.6017ZM103.6 85.9616V61.6016H114.8C118.666 61.6016 121.8 64.7356 121.8 68.6016V103.322C121.8 107.187 118.666 110.321 114.8 110.321H109.751C108.978 110.321 108.351 110.948 108.351 111.721V118.194C108.351 119.415 106.896 120.051 106 119.221L96.7898 110.694C96.5311 110.455 96.1914 110.321 95.8387 110.321H57.4C53.534 110.321 50.4 107.187 50.4 103.322V98.5615H91C97.9588 98.5615 103.6 92.9203 103.6 85.9616ZM91 95.7615L50.4 95.7615H47.6L47.4075 95.7615C47.0529 95.7615 46.7115 95.8961 46.4523 96.138L34.8877 106.932C33.9928 107.767 32.5325 107.132 32.5325 105.908V97.1615C32.5325 96.3883 31.9057 95.7615 31.1325 95.7615H26.6C21.1876 95.7615 16.8 91.3739 16.8 85.9615V47.6017C16.8 42.1893 21.1876 37.8017 26.6 37.8017H91C96.4124 37.8017 100.8 42.1893 100.8 47.6017V85.9616C100.8 91.3739 96.4124 95.7615 91 95.7615ZM38.185 73.2913C41.7804 73.2913 44.695 70.3767 44.695 66.7813C44.695 63.186 41.7804 60.2714 38.185 60.2714C34.5896 60.2714 31.675 63.186 31.675 66.7813C31.675 70.3767 34.5896 73.2913 38.185 73.2913ZM65.3095 66.7813C65.3095 70.3767 62.3948 73.2913 58.7995 73.2913C55.2041 73.2913 52.2895 70.3767 52.2895 66.7813C52.2895 63.186 55.2041 60.2714 58.7995 60.2714C62.3948 60.2714 65.3095 63.186 65.3095 66.7813ZM79.4153 73.2913C83.0106 73.2913 85.9253 70.3767 85.9253 66.7813C85.9253 63.186 83.0106 60.2714 79.4153 60.2714C75.8199 60.2714 72.9053 63.186 72.9053 66.7813C72.9053 70.3767 75.8199 73.2913 79.4153 73.2913ZM106.881 36.8941C106.881 38.9312 108.533 40.5825 110.57 40.5825H118.157C120.194 40.5825 121.846 38.9312 121.846 36.8941C121.846 34.8571 120.194 33.2057 118.157 33.2057H110.57C108.533 33.2057 106.881 34.8571 106.881 36.8941ZM110.57 37.7826C110.079 37.7826 109.681 37.3848 109.681 36.8941C109.681 36.4035 110.079 36.0057 110.57 36.0057H118.157C118.648 36.0057 119.046 36.4035 119.046 36.8941C119.046 37.3848 118.648 37.7826 118.157 37.7826H110.57Z" fill="#99A1AF"/>
</svg>
