<svg width="140" height="140" viewBox="0 0 140 140" fill="none" xmlns="http://www.w3.org/2000/svg">
<ellipse opacity="0.1" cx="70" cy="135.802" rx="70" ry="4.2" fill="#99A1AF"/>
<path fill-rule="evenodd" clip-rule="evenodd" d="M100.276 22.9034C101.482 21.2617 103.79 20.9086 105.432 22.1146C107.074 23.3206 107.427 25.6291 106.221 27.2708L101.729 33.3858C100.523 35.0275 98.214 35.3807 96.5723 34.1746C94.9307 32.9686 94.5775 30.6601 95.7835 29.0184L100.276 22.9034ZM103.774 24.3711C103.379 24.0806 102.823 24.1657 102.532 24.5611L98.0401 30.6761C97.7496 31.0716 97.8346 31.6276 98.2301 31.9181C98.6255 32.2086 99.1815 32.1235 99.472 31.7281L103.964 25.6131C104.255 25.2177 104.17 24.6616 103.774 24.3711ZM33.7611 59.1357C33.7611 41.2037 48.2978 26.667 66.2297 26.667C84.1617 26.667 98.6984 41.2037 98.6984 59.1357C98.6984 77.0676 84.1617 91.6043 66.2297 91.6043C48.2978 91.6043 33.7611 77.0676 33.7611 59.1357ZM66.2297 23.867C46.7514 23.867 30.9611 39.6573 30.9611 59.1357C30.9611 78.614 46.7514 94.4043 66.2297 94.4043C72.633 94.4043 78.6377 92.6979 83.8139 89.715L88.3917 94.2927C88.2609 96.2382 88.939 98.2279 90.4261 99.715L104.552 113.84C107.285 116.574 111.717 116.574 114.451 113.84L117.497 110.795C120.23 108.061 120.23 103.629 117.497 100.895L103.371 86.7697C101.884 85.2823 99.8936 84.6042 97.9477 84.7354L94.0404 80.828C98.7136 74.8452 101.498 67.3157 101.498 59.1357C101.498 39.6573 85.7081 23.867 66.2297 23.867ZM94.9129 85.6603L92.2244 82.9719C90.434 84.9235 88.4266 86.6728 86.2405 88.1818L89.3162 91.2574C89.6149 90.7421 89.9849 90.2567 90.4261 89.8155L93.4718 86.7697C93.9127 86.3288 94.3978 85.959 94.9129 85.6603ZM82.4169 54.8969C83.1085 54.5511 83.3888 53.7101 83.043 53.0186C82.6972 52.327 81.8563 52.0467 81.1647 52.3925L70.1803 57.8847C69.706 58.1218 69.4064 58.6066 69.4064 59.1369C69.4064 59.6672 69.706 60.1519 70.1803 60.3891L81.1647 65.8813C81.8563 66.2271 82.6972 65.9468 83.043 65.2552C83.3888 64.5636 83.1085 63.7227 82.4169 63.3769L73.9369 59.1369L82.4169 54.8969ZM49.4151 53.0186C49.0693 53.7101 49.3496 54.5511 50.0412 54.8969L58.5212 59.1369L50.0412 63.3769C49.3496 63.7227 49.0693 64.5636 49.4151 65.2552C49.7609 65.9468 50.6018 66.2271 51.2934 65.8813L62.2778 60.3891C62.7521 60.1519 63.0517 59.6672 63.0517 59.1369C63.0517 58.6066 62.7521 58.1218 62.2778 57.8847L51.2934 52.3925C50.6018 52.0467 49.7609 52.327 49.4151 53.0186ZM42.9144 59.1353C42.9144 46.2588 53.3529 35.8203 66.2294 35.8203C79.1059 35.8203 89.5443 46.2588 89.5443 59.1353C89.5443 72.0118 79.1059 82.4503 66.2294 82.4503C53.3529 82.4503 42.9144 72.0118 42.9144 59.1353ZM66.2294 33.0203C51.8065 33.0203 40.1144 44.7124 40.1144 59.1353C40.1144 73.5582 51.8065 85.2503 66.2294 85.2503C80.6523 85.2503 92.3443 73.5582 92.3443 59.1353C92.3443 44.7124 80.6523 33.0203 66.2294 33.0203ZM115.824 36.4631C115.205 34.5224 113.129 33.4512 111.189 34.0705L103.96 36.3772C102.02 36.9964 100.948 39.0716 101.568 41.0123C102.187 42.9529 104.262 44.0241 106.203 43.4049L113.431 41.0982C115.372 40.479 116.443 38.4037 115.824 36.4631ZM112.04 36.738C112.507 36.5888 113.007 36.8468 113.156 37.3143C113.306 37.7817 113.048 38.2816 112.58 38.4307L105.352 40.7374C104.884 40.8866 104.384 40.6285 104.235 40.1611C104.086 39.6937 104.344 39.1938 104.811 39.0446L112.04 36.738ZM21.4114 79.9712C19.4557 80.5411 18.3323 82.5886 18.9021 84.5443C19.472 86.5 21.5195 87.6234 23.4752 87.0535L30.7599 84.9307C32.7157 84.3608 33.8391 82.3134 33.2692 80.3577C32.6993 78.402 30.6519 77.2786 28.6962 77.8485L21.4114 79.9712ZM21.5903 83.7609C21.4531 83.2899 21.7237 82.7967 22.1947 82.6594L29.4795 80.5367C29.9506 80.3994 30.4437 80.67 30.581 81.141C30.7183 81.6121 30.4477 82.1053 29.9766 82.2425L22.6918 84.3653C22.2208 84.5026 21.7276 84.232 21.5903 83.7609ZM28.8174 99.2275C27.2068 97.9802 26.9122 95.6635 28.1594 94.0529L32.8052 88.0537C34.0524 86.4431 36.3691 86.1485 37.9797 87.3957C39.5903 88.643 39.8849 90.9597 38.6377 92.5703L33.9919 98.5695C32.7447 100.18 30.428 100.475 28.8174 99.2275ZM30.3732 95.7673C30.0728 96.1552 30.1438 96.7132 30.5317 97.0136C30.9197 97.3141 31.4777 97.2431 31.7781 96.8552L36.4239 90.8559C36.7243 90.468 36.6533 89.91 36.2654 89.6095C35.8774 89.3091 35.3194 89.3801 35.019 89.768L30.3732 95.7673Z" fill="#99A1AF"/>
</svg>
