<svg preserveAspectRatio="none" width="100%" height="100%" overflow="visible" style="display: block;" viewBox="0 0 140 140" fill="none" xmlns="http://www.w3.org/2000/svg">
<g id="Task_empty">
<g id="Rectangle 1" opacity="0.2">
</g>
<ellipse id="Ellipse 1183" opacity="0.1" cx="70" cy="135.8" rx="70" ry="4.2" fill="var(--fill-0, #99A1AF)"/>
<path id="Union" fill-rule="evenodd" clip-rule="evenodd" d="M27.6442 22.9899C26.7057 21.1819 24.4793 20.477 22.6713 21.4155C20.8632 22.354 20.1583 24.5804 21.0968 26.3884L24.5924 33.123C25.5309 34.931 27.7574 35.6359 29.5654 34.6974C31.3734 33.759 32.0783 31.5325 31.1398 29.7245L27.6442 22.9899ZM23.9612 23.9007C24.3967 23.6746 24.933 23.8444 25.159 24.2799L28.6547 31.0145C28.8807 31.45 28.7109 31.9862 28.2754 32.2123C27.8399 32.4383 27.3037 32.2685 27.0776 31.833L23.582 25.0985C23.3559 24.663 23.5257 24.1267 23.9612 23.9007ZM36.9071 39.0879C32.2679 39.0879 28.5071 42.8488 28.5071 47.4879V106.433C28.5071 111.072 32.2679 114.833 36.9071 114.833H92.907C97.5462 114.833 101.307 111.072 101.307 106.433V97.3412C95.4486 93.9523 91.507 87.6181 91.507 80.3633C91.507 73.1086 95.4486 66.7744 101.307 63.3855V47.4879C101.307 42.8487 97.5462 39.0879 92.907 39.0879H87.1623V41.2116C87.1623 45.0776 84.0283 48.2116 80.1623 48.2116H52.452C48.586 48.2116 45.452 45.0776 45.452 41.2116V39.0879H36.9071ZM104.107 62.0503V47.4879C104.107 41.3023 99.0926 36.2879 92.907 36.2879H74.5049C73.5541 32.6488 70.2443 29.9633 66.3071 29.9633C62.37 29.9633 59.0602 32.6488 58.1094 36.2879H36.9071C30.7215 36.2879 25.7071 41.3024 25.7071 47.4879V106.433C25.7071 112.618 30.7215 117.633 36.9071 117.633H92.907C99.0926 117.633 104.107 112.618 104.107 106.433V98.6764C106.281 99.5078 108.641 99.9633 111.107 99.9633C121.932 99.9633 130.707 91.1881 130.707 80.3633C130.707 69.5385 121.932 60.7633 111.107 60.7633C108.641 60.7633 106.281 61.2188 104.107 62.0503ZM10.19 33.9923C11.1011 32.1704 13.3167 31.432 15.1386 32.3431L21.9251 35.7368C23.7471 36.6479 24.4855 38.8635 23.5744 40.6854C22.6633 42.5074 20.4477 43.2458 18.6258 42.3347L11.8392 38.941C10.0173 38.0299 9.27889 35.8143 10.19 33.9923ZM13.8863 34.8474C13.4474 34.628 12.9138 34.8058 12.6943 35.2447C12.4749 35.6835 12.6527 36.2172 13.0916 36.4366L19.8781 39.8303C20.3169 40.0498 20.8506 39.8719 21.07 39.4331C21.2895 38.9942 21.1116 38.4606 20.6728 38.2411L13.8863 34.8474ZM58.3897 67.2561C58.3897 65.3231 59.9567 63.7561 61.8897 63.7561H85.6897C87.6227 63.7561 89.1897 65.3231 89.1897 67.2561C89.1897 69.1891 87.6227 70.7561 85.6897 70.7561H61.8897C59.9567 70.7561 58.3897 69.1891 58.3897 67.2561ZM61.8897 80.1459C59.9567 80.1459 58.3897 81.713 58.3897 83.6459C58.3897 85.5789 59.9567 87.1459 61.8897 87.1459H85.6897C87.6227 87.1459 89.1897 85.5789 89.1897 83.6459C89.1897 81.713 87.6227 80.1459 85.6897 80.1459H61.8897ZM61.1897 83.6459C61.1897 83.2593 61.5031 82.9459 61.8897 82.9459H85.6897C86.0763 82.9459 86.3897 83.2593 86.3897 83.6459C86.3897 84.0325 86.0763 84.3459 85.6897 84.3459H61.8897C61.5031 84.3459 61.1897 84.0325 61.1897 83.6459ZM58.3897 100.784C58.3897 98.8506 59.9567 97.2836 61.8897 97.2836H85.6897C87.6227 97.2836 89.1897 98.8506 89.1897 100.784C89.1897 102.717 87.6227 104.284 85.6897 104.284H61.8897C59.9567 104.284 58.3897 102.717 58.3897 100.784ZM61.8897 100.084C61.5031 100.084 61.1897 100.397 61.1897 100.784C61.1897 101.17 61.5031 101.484 61.8897 101.484H85.6897C86.0763 101.484 86.3897 101.17 86.3897 100.784C86.3897 100.397 86.0763 100.084 85.6897 100.084H61.8897ZM42.7477 66.001C42.7477 63.6814 44.6281 61.801 46.9477 61.801H49.1684C51.488 61.801 53.3684 63.6814 53.3684 66.001V68.2217C53.3684 70.5413 51.488 72.4217 49.1684 72.4217H46.9477C44.6281 72.4217 42.7477 70.5413 42.7477 68.2217V66.001ZM46.9477 78.1909C44.6281 78.1909 42.7477 80.0713 42.7477 82.3909V84.6116C42.7477 86.9312 44.6281 88.8116 46.9477 88.8116H49.1684C51.488 88.8116 53.3684 86.9312 53.3684 84.6116V82.3909C53.3684 80.0713 51.488 78.1909 49.1684 78.1909H46.9477ZM45.5477 82.3909C45.5477 81.6177 46.1745 80.9909 46.9477 80.9909H49.1684C49.9416 80.9909 50.5684 81.6177 50.5684 82.3909V84.6116C50.5684 85.3848 49.9416 86.0116 49.1684 86.0116H46.9477C46.1745 86.0116 45.5477 85.3848 45.5477 84.6116V82.3909ZM42.7477 99.5286C42.7477 97.209 44.6281 95.3286 46.9477 95.3286H49.1684C51.488 95.3286 53.3684 97.209 53.3684 99.5286V101.749C53.3684 104.069 51.488 105.949 49.1684 105.949H46.9477C44.6281 105.949 42.7477 104.069 42.7477 101.749V99.5286ZM46.9477 98.1286C46.1745 98.1286 45.5477 98.7554 45.5477 99.5286V101.749C45.5477 102.522 46.1745 103.149 46.9477 103.149H49.1684C49.9416 103.149 50.5684 102.522 50.5684 101.749V99.5286C50.5684 98.7554 49.9416 98.1286 49.1684 98.1286H46.9477ZM94.307 80.3633C94.307 71.0849 101.829 63.5633 111.107 63.5633C120.385 63.5633 127.907 71.0849 127.907 80.3633C127.907 89.6417 120.385 97.1633 111.107 97.1633C101.829 97.1633 94.307 89.6417 94.307 80.3633ZM107.607 71.2633C107.607 69.3303 109.174 67.7633 111.107 67.7633C113.04 67.7633 114.607 69.3303 114.607 71.2633V79.6633C114.607 81.5963 113.04 83.1633 111.107 83.1633C109.174 83.1633 107.607 81.5963 107.607 79.6633V71.2633ZM111.107 70.5633C110.72 70.5633 110.407 70.8767 110.407 71.2633V79.6633C110.407 80.0499 110.72 80.3633 111.107 80.3633C111.494 80.3633 111.807 80.0499 111.807 79.6633V71.2633C111.807 70.8767 111.494 70.5633 111.107 70.5633ZM111.107 92.9633C109.174 92.9633 107.607 91.3963 107.607 89.4633C107.607 87.5303 109.174 85.9633 111.107 85.9633C113.04 85.9633 114.607 87.5303 114.607 89.4633C114.607 91.3963 113.04 92.9633 111.107 92.9633ZM110.407 89.4633C110.407 89.8499 110.72 90.1633 111.107 90.1633C111.494 90.1633 111.807 89.8499 111.807 89.4633C111.807 89.0767 111.494 88.7633 111.107 88.7633C110.72 88.7633 110.407 89.0767 110.407 89.4633Z" fill="var(--fill-0, #99A1AF)"/>
</g>
</svg>
