<svg width="20" height="20" viewBox="0 0 20 20" fill="none" xmlns="http://www.w3.org/2000/svg">
<path d="M0 10C0 4.47715 4.47715 0 10 0C15.5228 0 20 4.47715 20 10C20 15.5228 15.5228 20 10 20C4.47715 20 0 15.5228 0 10Z" fill="#FB2C36"/>
<path d="M13.5 8.5H10.5311L10.998 4.55902C10.9995 4.5495 11 4.51004 11 4.49997C11 4.21954 10.7805 4 10.5 4C10.3436 4 10.1935 4.07452 10.0921 4.21149L6.09998 10.2C6.03552 10.286 6 10.3925 6 10.5C6 10.7805 6.21954 11 6.49997 11H8.972L8.5015 15.4485C8.5005 15.4575 8.50004 15.491 8.50004 15.5C8.50004 15.7805 8.71949 16 9.00001 16C9.15648 16 9.30653 15.9255 9.4055 15.792L13.9 9.29999C13.9646 9.21402 14 9.10754 14 8.99997C14 8.71954 13.7805 8.5 13.5 8.5Z" fill="#FFDF20"/>
</svg>
